<svg width="591" height="588" viewBox="0 0 591 588" fill="none" xmlns="http://www.w3.org/2000/svg">
<g clip-path="url(#clip0_32_2)">
<g opacity="0.4">
<path d="M284.373 71.8925V74.5906L295.714 81.1217V78.4235L284.373 71.8925Z" fill="white"/>
<path d="M284.373 76.8097V79.5331L295.714 86.0642V83.366L284.373 76.8097Z" fill="white"/>
<path d="M284.373 81.7521V84.4503L295.714 91.0066V88.2832L284.373 81.7521Z" fill="white"/>
<path d="M369.914 138.742V136.043L299.974 95.6717V98.3699L369.914 138.742Z" fill="white"/>
<path d="M284.373 86.6946V89.3928L295.714 95.9238V93.2257L284.373 86.6946Z" fill="white"/>
<path d="M284.373 91.6118V94.31L295.714 100.866V98.1429L284.373 91.6118Z" fill="white"/>
<path d="M369.914 143.684V140.986L299.974 100.614V103.312L369.914 143.684Z" fill="white"/>
<path d="M284.373 106.414V109.112L295.714 115.643V112.945L284.373 106.414Z" fill="white"/>
<path d="M284.373 111.331V114.029L295.714 120.586V117.887L284.373 111.331Z" fill="white"/>
<path d="M284.373 131.076V133.774L295.714 140.305V137.607L284.373 131.076Z" fill="white"/>
<path d="M284.373 135.993V138.691L295.714 145.222V142.524L284.373 135.993Z" fill="white"/>
<path d="M344.08 170.464L299.974 144.995V147.693L344.08 173.162V170.464Z" fill="white"/>
<path d="M346.424 171.801V174.499L369.914 188.065V185.367L346.424 171.801Z" fill="white"/>
<path d="M322.128 152.863L299.974 140.053V142.751L322.128 155.561V152.863Z" fill="white"/>
<path d="M324.472 154.199V156.898L369.914 183.123V180.425L324.472 154.199Z" fill="white"/>
<path d="M363.94 162.193V164.891L369.914 168.321V165.622L363.94 162.193Z" fill="white"/>
<path d="M331.403 138.464L299.974 120.333V123.032L331.403 141.162V138.464Z" fill="white"/>
<path d="M318.524 91.5866L299.974 80.8948V83.5929L318.524 94.2848V91.5866Z" fill="white"/>
<path d="M348.919 109.137L320.842 92.9231V95.6212L348.919 111.835V109.137Z" fill="white"/>
<path d="M332.562 104.624L312.777 93.2257V95.9238L332.562 107.322V104.624Z" fill="white"/>
<path d="M353.305 116.601L334.881 105.96V108.658L353.305 119.3V116.601Z" fill="white"/>
<path d="M355.623 117.938V120.636L369.914 128.882V126.184L355.623 117.938Z" fill="white"/>
<path d="M303.628 92.8474V95.5456L318.523 104.144V101.446L303.628 92.8474Z" fill="white"/>
<path d="M364.092 127.747L320.842 102.808V105.506L364.092 130.445V127.747Z" fill="white"/>
<path d="M339.316 128.251L311.063 111.962V114.66L339.316 130.95V128.251Z" fill="white"/>
<path d="M364.092 142.549L341.661 129.613V132.311L364.092 145.247V142.549Z" fill="white"/>
<path d="M361.596 155.914L333.721 139.826V142.524L361.596 158.612V155.914Z" fill="white"/>
<path d="M346.424 152.081V154.779L361.596 163.529V160.831L346.424 152.081Z" fill="white"/>
<path d="M305.443 128.428L299.974 125.276V127.974L305.443 131.126V128.428Z" fill="white"/>
<path d="M315.675 134.329V137.027L344.08 153.418V150.719L315.675 134.329Z" fill="white"/>
<path d="M313.357 132.992L307.762 129.764V132.463L313.357 135.69V132.992Z" fill="white"/>
<path d="M338.838 152.636L307.762 134.707V137.405L338.838 155.334V152.636Z" fill="white"/>
</g>
<g opacity="0.4">
<path d="M344.811 27.2339L297.806 0V2.39557L344.811 29.6295V27.2339Z" fill="white"/>
<path d="M297.806 7.08585L369.914 48.8193V46.4237L297.806 4.69028V7.08585Z" fill="white"/>
<path d="M347.961 28.9991V31.3946L369.914 44.129V41.7334L347.961 28.9991Z" fill="white"/>
<path d="M344.811 36.3875L297.806 9.15361V11.5492L344.811 38.7831V36.3875Z" fill="white"/>
<path d="M297.806 16.2647L369.914 57.9729V55.5773L297.806 13.8691V16.2647Z" fill="white"/>
<path d="M347.961 40.5482L369.914 53.2826V50.887L347.961 38.1779V40.5482Z" fill="white"/>
<path d="M344.811 51.5175L297.806 24.2836V26.6791L344.811 53.913V51.5175Z" fill="white"/>
<path d="M297.806 31.3946L369.914 73.1028V70.7073L297.806 28.9991V31.3946Z" fill="white"/>
<path d="M347.961 55.6782L369.914 68.4126V66.017L347.961 53.3078V55.6782Z" fill="white"/>
<path d="M344.811 60.6963L297.806 33.4624V35.858L344.811 63.0919V60.6963Z" fill="white"/>
<path d="M297.806 40.5483L369.914 82.2817V79.8861L297.806 38.1527V40.5483Z" fill="white"/>
<path d="M347.961 64.857L369.914 77.5662V75.1958L347.961 62.4615V64.857Z" fill="white"/>
<path d="M344.811 75.8262L297.806 48.5923V50.9879L344.811 78.2218V75.8262Z" fill="white"/>
<path d="M297.806 55.6782L369.914 97.4116V95.0161L297.806 53.2826V55.6782Z" fill="white"/>
<path d="M347.961 79.987L369.914 92.6961V90.3006L347.961 77.5914V79.987Z" fill="white"/>
<path d="M344.811 84.9798L297.806 57.7459V60.1415L344.811 87.3754V84.9798Z" fill="white"/>
<path d="M297.806 64.8318L369.914 106.565V104.17L297.806 62.4362V64.8318Z" fill="white"/>
<path d="M347.961 89.1406L369.914 101.875V99.4794L347.961 86.745V89.1406Z" fill="white"/>
</g>
<path opacity="0.2" d="M218.012 61.5537L182.903 41.3804C182.516 41.1379 182.07 41.0052 181.613 40.9967C181.156 40.9882 180.705 41.1041 180.309 41.332C179.913 41.56 179.586 41.8914 179.364 42.2908C179.142 42.6902 179.032 43.1425 179.047 43.5995V85.6355C179.027 86.6571 179.284 87.6649 179.79 88.5526C180.296 89.4403 181.031 90.1749 181.92 90.6788L217.029 111.003C217.422 111.272 217.884 111.424 218.36 111.44C218.836 111.457 219.307 111.339 219.719 111.098C220.13 110.858 220.465 110.506 220.685 110.083C220.905 109.66 221 109.184 220.96 108.709V66.597C220.946 65.5731 220.667 64.5703 220.15 63.6864C219.634 62.8026 218.897 62.0678 218.012 61.5537Z" fill="white"/>
<path d="M202.436 97.0081L156.414 70.4551C155.707 70.044 154.899 69.8423 154.082 69.8735C153.265 69.9048 152.475 70.1677 151.802 70.6316L141.72 76.4566L146.408 82.8364L148.172 84.8538V130.471C148.167 131.804 148.514 133.114 149.178 134.27C149.842 135.426 150.799 136.386 151.953 137.052L186.406 156.998L186.759 158.915L193.791 168.775L204.603 162.395C205.112 162.089 205.533 161.657 205.824 161.139C206.116 160.622 206.268 160.038 206.267 159.444V103.968C206.298 102.573 205.96 101.195 205.287 99.9725C204.614 98.7503 203.631 97.7276 202.436 97.0081Z" fill="#F4767A"/>
<path d="M191.674 103.338L145.148 76.4567C144.632 76.1732 144.052 76.0284 143.463 76.0363C142.875 76.0442 142.299 76.2046 141.791 76.5019C141.283 76.7991 140.861 77.223 140.566 77.7321C140.271 78.2413 140.113 78.8184 140.107 79.407V135.186C140.104 136.522 140.455 137.834 141.123 138.99C141.792 140.146 142.754 141.104 143.913 141.768L190.489 168.724C191.021 169.028 191.623 169.188 192.235 169.186C192.847 169.185 193.448 169.024 193.979 168.717C194.509 168.411 194.95 167.971 195.258 167.442C195.565 166.912 195.728 166.311 195.731 165.698V110.222C195.726 108.817 195.347 107.439 194.634 106.23C193.921 105.02 192.899 104.022 191.674 103.338Z" fill="#ED5561"/>
<path d="M195.555 165.698V110.222C195.533 109.307 195.354 108.403 195.026 107.549L205.813 101.32C206.126 102.125 206.297 102.978 206.317 103.842V159.318C206.319 159.912 206.166 160.496 205.875 161.013C205.583 161.53 205.162 161.963 204.653 162.269L193.942 168.573C194.43 168.268 194.834 167.845 195.116 167.342C195.398 166.84 195.549 166.274 195.555 165.698Z" fill="#D8395A"/>
<path d="M151.071 103.161L145.4 99.8828V120.283L149.155 122.452V115.189L150.768 116.122C151.471 116.676 152.286 117.071 153.156 117.28C154.026 117.489 154.931 117.507 155.809 117.333C156.994 116.854 157.598 115.517 157.598 113.323C157.646 111.289 157.065 109.29 155.935 107.599C154.689 105.754 153.021 104.233 151.071 103.161ZM152.961 113.071C152.061 113.176 151.156 112.922 150.441 112.365L149.206 111.659V105.607L150.92 106.59C151.815 107.088 152.583 107.787 153.163 108.633C153.657 109.426 153.91 110.346 153.894 111.281C153.843 112.289 153.541 112.895 152.961 113.071Z" fill="white"/>
<path d="M170.755 122.527L163.748 118.467L163.773 110.474L159.993 108.305L159.942 128.705L163.698 130.874L163.723 122.073L170.755 126.133L170.73 134.934L174.485 137.102L174.535 116.702L170.78 114.534L170.755 122.527Z" fill="white"/>
<path d="M188.574 126.436C187.32 124.588 185.644 123.066 183.684 121.998L178.013 118.72V139.12L181.769 141.288V134.051L183.382 134.984C184.088 135.531 184.904 135.919 185.773 136.124C186.643 136.328 187.546 136.344 188.422 136.169C189.607 135.69 190.212 134.379 190.212 132.16C190.263 130.129 189.692 128.131 188.574 126.436ZM185.473 131.933C184.57 132.025 183.667 131.763 182.953 131.202L181.718 130.496V124.444L183.432 125.427C184.333 125.918 185.102 126.618 185.675 127.47C186.172 128.271 186.426 129.2 186.406 130.143C186.456 131.126 186.154 131.731 185.473 131.933Z" fill="white"/>
<g opacity="0.4">
<path d="M93.7324 99.0759V101.774L105.074 108.33V105.632L93.7324 99.0759Z" fill="white"/>
<path d="M93.7324 104.018V106.717L105.074 113.248V110.549L93.7324 104.018Z" fill="white"/>
<path d="M93.7324 108.936V111.634L105.074 118.19V115.492L93.7324 108.936Z" fill="white"/>
<path d="M179.274 165.925V163.227L109.333 122.88V125.579L179.274 165.925Z" fill="white"/>
<path d="M93.7324 113.878V116.576L105.074 123.107V120.409L93.7324 113.878Z" fill="white"/>
<path d="M93.7324 118.795V121.519L105.074 128.05V125.352L93.7324 118.795Z" fill="white"/>
<path d="M179.274 170.868V168.169L109.333 127.798V130.496L179.274 170.868Z" fill="white"/>
<path d="M93.7324 133.597V136.296L105.074 142.852V140.154L93.7324 133.597Z" fill="white"/>
<path d="M93.7324 138.54V141.238L105.074 147.769V145.071L93.7324 138.54Z" fill="white"/>
<path d="M93.7324 158.259V160.957L105.074 167.488V164.79L93.7324 158.259Z" fill="white"/>
<path d="M93.7324 163.176V165.875L105.074 172.431V169.733L93.7324 163.176Z" fill="white"/>
<path d="M153.44 197.648L109.333 172.179V174.877L153.44 200.346V197.648Z" fill="white"/>
<path d="M155.784 198.984V201.682L179.273 215.249V212.551L155.784 198.984Z" fill="white"/>
<path d="M131.487 180.046L109.333 167.262V169.96L131.487 182.745V180.046Z" fill="white"/>
<path d="M133.806 181.383V184.081L179.273 210.306V207.608L133.806 181.383Z" fill="white"/>
<path d="M173.3 189.376V192.075L179.274 195.529V192.831L173.3 189.376Z" fill="white"/>
<path d="M140.737 165.673L109.333 147.517V150.215L140.737 168.371V165.673Z" fill="white"/>
<path d="M127.883 118.77L109.333 108.078V110.776L127.883 121.468V118.77Z" fill="white"/>
<path d="M158.279 136.321L130.202 120.132V122.83L158.279 139.019V136.321Z" fill="white"/>
<path d="M141.922 131.807L122.137 120.409V123.107L141.922 134.505V131.807Z" fill="white"/>
<path d="M162.665 143.785L144.241 133.169V135.867L162.665 146.483V143.785Z" fill="white"/>
<path d="M164.983 145.121V147.82L179.273 156.065V153.367L164.983 145.121Z" fill="white"/>
<path d="M112.988 120.056V122.754L127.883 131.353V128.655L112.988 120.056Z" fill="white"/>
<path d="M173.452 154.931L130.202 129.991V132.69L173.452 157.654V154.931Z" fill="white"/>
<path d="M148.676 155.46L120.423 139.145V141.843L148.676 158.158V155.46Z" fill="white"/>
<path d="M173.452 169.733L151.021 156.797V159.495L173.452 172.431V169.733Z" fill="white"/>
<path d="M170.956 183.098L143.081 167.009V169.708L170.956 185.796V183.098Z" fill="white"/>
<path d="M155.784 179.265V181.963L170.956 190.738V188.04L155.784 179.265Z" fill="white"/>
<path d="M114.803 155.611L109.333 152.459V155.158L114.803 158.31V155.611Z" fill="white"/>
<path d="M125.035 161.537V164.236L153.44 180.626V177.928L125.035 161.537Z" fill="white"/>
<path d="M122.717 160.176L117.122 156.948V159.646L122.717 162.874V160.176Z" fill="white"/>
<path d="M148.198 179.819L117.122 161.89V164.589L148.198 182.518V179.819Z" fill="white"/>
</g>
<path opacity="0.2" d="M431.713 134.177L396.605 114.004C396.215 113.76 395.767 113.627 395.308 113.62C394.849 113.612 394.396 113.73 393.999 113.961C393.602 114.192 393.276 114.528 393.056 114.931C392.835 115.334 392.729 115.789 392.748 116.248V158.284C392.732 159.303 392.987 160.307 393.488 161.193C393.988 162.08 394.716 162.816 395.596 163.328L430.705 183.627C431.097 183.901 431.559 184.058 432.037 184.08C432.514 184.102 432.988 183.987 433.403 183.749C433.818 183.511 434.157 183.159 434.38 182.736C434.603 182.313 434.701 181.835 434.662 181.358V139.296C434.659 138.26 434.385 137.243 433.867 136.345C433.35 135.447 432.608 134.7 431.713 134.177Z" fill="white"/>
<path opacity="0.2" d="M479.65 52.9296L444.541 32.7563C444.154 32.5138 443.708 32.3812 443.251 32.3726C442.794 32.3641 442.344 32.48 441.948 32.708C441.552 32.9359 441.225 33.2673 441.003 33.6667C440.78 34.0661 440.671 34.5185 440.685 34.9754V76.9358C440.663 77.9579 440.919 78.9668 441.425 79.855C441.931 80.7432 442.668 81.4773 443.559 81.9791L478.667 102.304C479.061 102.572 479.523 102.724 479.999 102.741C480.475 102.757 480.946 102.639 481.357 102.399C481.769 102.158 482.104 101.807 482.324 101.384C482.544 100.961 482.639 100.484 482.599 100.009V58.1494C482.624 57.0941 482.363 56.0518 481.844 55.1328C481.325 54.2139 480.567 53.4526 479.65 52.9296Z" fill="white"/>
<path opacity="0.2" d="M588.051 272.768L552.942 252.594C552.555 252.352 552.109 252.219 551.652 252.211C551.195 252.202 550.745 252.318 550.349 252.546C549.953 252.774 549.626 253.105 549.403 253.505C549.181 253.904 549.072 254.357 549.086 254.813V296.875C549.064 297.897 549.32 298.906 549.826 299.794C550.332 300.682 551.069 301.416 551.959 301.918L587.043 322.243C587.437 322.519 587.901 322.677 588.381 322.697C588.862 322.718 589.338 322.601 589.754 322.36C590.17 322.119 590.508 321.763 590.729 321.336C590.95 320.909 591.044 320.427 591 319.948V278.088C591.043 277.016 590.791 275.953 590.271 275.014C589.751 274.076 588.983 273.299 588.051 272.768Z" fill="white"/>
<path opacity="0.2" d="M282.457 169.304L247.348 149.131C246.959 148.894 246.514 148.766 246.059 148.762C245.603 148.758 245.155 148.877 244.762 149.108C244.37 149.338 244.046 149.67 243.827 150.069C243.608 150.469 243.501 150.92 243.517 151.375V193.411C243.503 194.429 243.76 195.432 244.26 196.318C244.76 197.204 245.487 197.941 246.365 198.454L281.474 218.754C281.866 219.028 282.328 219.185 282.805 219.207C283.283 219.228 283.757 219.113 284.172 218.875C284.587 218.637 284.926 218.286 285.149 217.863C285.372 217.439 285.469 216.961 285.431 216.484V174.423C285.427 173.384 285.151 172.364 284.629 171.465C284.107 170.567 283.358 169.821 282.457 169.304Z" fill="white"/>
<path d="M150.314 514.847C140.989 514.847 144.039 507.837 144.039 507.837C130.227 503.625 123.422 505.971 123.422 505.971C121.349 513.293 120.607 520.929 121.23 528.514C121.23 529.951 122.238 530.834 123.599 531.364C131.034 534.112 137.813 535.953 151.65 534.617C161.858 533.608 172.645 524.177 170.2 514.443C168.663 508.442 159.766 514.746 150.314 514.847Z" fill="#933E31"/>
<path d="M146.307 427.194C143.585 423.638 138.897 420.612 131.185 422.655L47.8618 438.743L50.9871 460.152C55.1692 465.148 60.727 468.804 66.9693 470.664C73.2116 472.525 79.8628 472.508 86.0958 470.617C99.1842 466.967 111.618 461.283 122.943 453.772L120.07 512.93C128.387 515.17 137.247 514.104 144.795 509.955C146.736 508.77 148.55 451.78 149.155 437.155C149.366 435.388 149.222 433.598 148.733 431.888C148.244 430.177 147.419 428.582 146.307 427.194Z" fill="#1C75BC"/>
<path d="M190.312 531.944C180.634 531.944 183.81 524.656 183.81 524.656C169.444 520.293 162.387 522.714 162.387 522.714C160.248 530.318 159.472 538.241 160.093 546.115C160.123 546.821 160.387 547.497 160.843 548.036C161.3 548.574 161.923 548.946 162.614 549.091C170.351 551.965 177.383 553.857 191.749 552.47C202.335 551.436 213.55 541.627 211.005 531.54C209.366 525.286 200.117 531.843 190.312 531.944Z" fill="#9D4D36"/>
<path d="M95.5973 508.417L24.0693 467.036V477.123L95.6225 518.377L95.5973 508.417Z" fill="#BBCEE1"/>
<path d="M89.0947 429.665L24.0693 467.036L95.5973 508.417L160.698 470.995L89.0947 429.665Z" fill="white"/>
<path d="M160.698 470.995L95.5972 508.416L95.6224 518.377L160.698 480.704V470.995Z" fill="#A7BCCE"/>
<path d="M186.154 440.912C183.331 437.23 178.593 434.078 170.402 436.196L83.8779 452.89L87.1796 475.105C91.5199 480.293 97.2889 484.089 103.769 486.021C110.249 487.954 117.153 487.937 123.624 485.974C137.217 482.187 150.128 476.281 161.883 468.474L158.96 529.825C167.587 532.167 176.786 531.064 184.617 526.749C186.658 525.513 188.549 466.355 189.153 451.099C189.542 447.44 188.463 443.776 186.154 440.912Z" fill="#2A87C6"/>
<path d="M31.5551 315.686L179.299 229.95C182.364 228.179 185.841 227.247 189.38 227.247C192.92 227.247 196.397 228.179 199.462 229.95L432.192 364.657C433.548 365.437 434.674 366.561 435.458 367.916C436.241 369.271 436.653 370.808 436.653 372.373C436.653 373.938 436.241 375.476 435.458 376.83C434.674 378.185 433.548 379.309 432.192 380.089L287.75 463.985C284.093 466.103 279.941 467.219 275.715 467.219C271.489 467.219 267.338 466.103 263.681 463.985L31.4795 329.581C30.2505 328.881 29.2299 327.867 28.5224 326.642C27.8149 325.417 27.446 324.026 27.4537 322.611C27.4614 321.197 27.8454 319.81 28.5662 318.593C29.287 317.376 30.3186 316.372 31.5551 315.686Z" fill="#E8EBF5"/>
<path d="M31.5801 329.505L263.781 463.909C267.439 466.028 271.59 467.143 275.816 467.143C280.042 467.143 284.193 466.028 287.851 463.909L432.293 380.014C433.625 379.247 434.735 378.146 435.513 376.82C436.291 375.493 436.71 373.987 436.729 372.449V383.695C436.72 385.232 436.308 386.74 435.534 388.068C434.76 389.395 433.651 390.496 432.318 391.26L287.851 475.105C284.193 477.224 280.042 478.34 275.816 478.34C271.59 478.34 267.439 477.224 263.781 475.105L31.5801 340.701C30.3505 340 29.3305 338.983 28.6259 337.754C27.9213 336.526 27.5577 335.132 27.5727 333.716V322.671C27.5768 324.063 27.9498 325.429 28.6538 326.63C29.3578 327.83 30.3676 328.822 31.5801 329.505Z" fill="#A7BCCE"/>
<path d="M31.5801 329.505L263.781 463.909C267.134 465.837 270.906 466.919 274.77 467.061V478.207C270.907 478.053 267.139 476.972 263.781 475.055L31.5801 340.651C30.3505 339.949 29.3305 338.932 28.6259 337.704C27.9213 336.476 27.5577 335.082 27.5727 333.666V322.621C27.5678 324.021 27.9367 325.398 28.6411 326.608C29.3456 327.818 30.3602 328.818 31.5801 329.505Z" fill="#BBCEE1"/>
<path d="M140.712 346.703L165.789 332.203C166.368 331.869 167.024 331.693 167.692 331.693C168.36 331.693 169.017 331.869 169.595 332.203L247.046 377.013C247.296 377.163 247.504 377.375 247.648 377.629C247.792 377.884 247.868 378.171 247.868 378.463C247.868 378.755 247.792 379.042 247.648 379.296C247.504 379.551 247.296 379.763 247.046 379.913L222.573 394.059C221.887 394.456 221.109 394.664 220.317 394.664C219.525 394.664 218.747 394.456 218.062 394.059L140.712 349.325C140.487 349.188 140.302 348.995 140.174 348.765C140.045 348.536 139.978 348.277 139.978 348.014C139.978 347.751 140.045 347.492 140.174 347.263C140.302 347.033 140.487 346.84 140.712 346.703Z" fill="#0F4463"/>
<path d="M140.712 349.325L218.062 394.059C218.748 394.455 219.526 394.664 220.318 394.664C221.11 394.664 221.888 394.455 222.573 394.059L247.046 379.913C247.302 379.765 247.514 379.552 247.66 379.295C247.807 379.037 247.882 378.746 247.878 378.45V381.426C247.868 381.715 247.787 381.998 247.642 382.249C247.497 382.499 247.292 382.71 247.046 382.863L222.573 396.934C221.888 397.33 221.11 397.539 220.318 397.539C219.526 397.539 218.748 397.33 218.062 396.934L140.712 352.301C140.481 352.171 140.291 351.98 140.162 351.748C140.033 351.517 139.97 351.254 139.981 350.989V348.014C139.981 348.277 140.048 348.535 140.176 348.765C140.304 348.994 140.488 349.187 140.712 349.325Z" fill="#0B3B56"/>
<path d="M165.512 336.263L168.637 334.447L172.216 336.49L169.091 338.306L165.512 336.263Z" fill="#1F5E77"/>
<path d="M169.948 338.835L173.099 336.994L176.652 339.062L173.527 340.878L169.948 338.835Z" fill="#1F5E77"/>
<path d="M174.409 341.382L177.534 339.566L181.113 341.634L177.988 343.45L174.409 341.382Z" fill="#1F5E77"/>
<path d="M178.845 343.954L181.995 342.138L185.574 344.181L182.424 345.997L178.845 343.954Z" fill="#1F5E77"/>
<path d="M183.306 346.526L186.457 344.685L190.01 346.753L186.885 348.569L183.306 346.526Z" fill="#1F5E77"/>
<path d="M187.767 349.073L190.892 347.257L194.471 349.325L191.346 351.141L187.767 349.073Z" fill="#1F5E77"/>
<path d="M192.203 351.645L195.354 349.829L198.907 351.872L195.782 353.688L192.203 351.645Z" fill="#1F5E77"/>
<path d="M196.664 354.217L199.789 352.376L203.368 354.444L200.243 356.26L196.664 354.217Z" fill="#1F5E77"/>
<path d="M201.1 356.764L204.25 354.948L207.804 357.016L204.679 358.832L201.1 356.764Z" fill="#1F5E77"/>
<path d="M205.561 359.336L208.711 357.521L212.265 359.563L209.14 361.379L205.561 359.336Z" fill="#1F5E77"/>
<path d="M210.022 361.883L213.147 360.067L216.726 362.135L213.601 363.951L210.022 361.883Z" fill="#1F5E77"/>
<path d="M214.458 364.455L217.608 362.64L221.162 364.707L218.036 366.498L214.458 364.455Z" fill="#1F5E77"/>
<path d="M222.044 365.186L225.623 367.254L222.498 369.07L218.919 367.027L222.044 365.186Z" fill="#1F5E77"/>
<path d="M165.008 340.676L161.455 338.608L164.58 336.793L168.159 338.86L165.008 340.676Z" fill="#1F5E77"/>
<path d="M172.594 341.407L169.469 343.223L165.89 341.18L169.041 339.365L172.594 341.407Z" fill="#1F5E77"/>
<path d="M177.056 343.979L173.93 345.795L170.352 343.752L173.477 341.911L177.056 343.979Z" fill="#1F5E77"/>
<path d="M181.491 346.551L178.366 348.367L174.787 346.299L177.938 344.484L181.491 346.551Z" fill="#1F5E77"/>
<path d="M185.952 349.098L182.827 350.914L179.248 348.871L182.373 347.056L185.952 349.098Z" fill="#1F5E77"/>
<path d="M190.413 351.67L187.263 353.486L183.684 351.443L186.835 349.603L190.413 351.67Z" fill="#1F5E77"/>
<path d="M194.849 354.242L191.724 356.058L188.145 353.99L191.295 352.175L194.849 354.242Z" fill="#1F5E77"/>
<path d="M199.31 356.789L196.185 358.605L192.606 356.562L195.731 354.747L199.31 356.789Z" fill="#1F5E77"/>
<path d="M203.746 359.361L200.621 361.177L197.042 359.134L200.192 357.294L203.746 359.361Z" fill="#1F5E77"/>
<path d="M208.207 361.933L205.082 363.749L201.503 361.681L204.628 359.866L208.207 361.933Z" fill="#1F5E77"/>
<path d="M212.668 364.48L209.518 366.296L205.939 364.253L209.089 362.438L212.668 364.48Z" fill="#1F5E77"/>
<path d="M217.104 367.052L213.979 368.868L210.4 366.825L213.525 364.985L217.104 367.052Z" fill="#1F5E77"/>
<path d="M217.986 367.557L221.565 369.599L218.44 371.44L214.861 369.372L217.986 367.557Z" fill="#1F5E77"/>
<path d="M160.951 343.021L157.372 340.978L160.522 339.163L164.076 341.205L160.951 343.021Z" fill="#1F5E77"/>
<path d="M168.537 343.778L165.411 345.593L161.833 343.525L164.958 341.71L168.537 343.778Z" fill="#1F5E77"/>
<path d="M166.269 346.097L169.419 344.282L172.998 346.324L169.847 348.14L166.269 346.097Z" fill="#1F5E77"/>
<path d="M177.434 348.897L174.308 350.712L170.729 348.67L173.88 346.829L177.434 348.897Z" fill="#1F5E77"/>
<path d="M181.895 351.469L178.769 353.284L175.19 351.216L178.316 349.401L181.895 351.469Z" fill="#1F5E77"/>
<path d="M186.331 354.015L183.205 355.831L179.626 353.788L182.777 351.973L186.331 354.015Z" fill="#1F5E77"/>
<path d="M190.792 356.588L187.666 358.403L184.087 356.361L187.213 354.52L190.792 356.588Z" fill="#1F5E77"/>
<path d="M195.252 359.16L192.102 360.975L188.523 358.907L191.673 357.092L195.252 359.16Z" fill="#1F5E77"/>
<path d="M199.689 361.706L196.563 363.522L192.984 361.48L196.135 359.664L199.689 361.706Z" fill="#1F5E77"/>
<path d="M204.149 364.279L201.024 366.094L197.445 364.052L200.571 362.211L204.149 364.279Z" fill="#1F5E77"/>
<path d="M208.585 366.851L205.46 368.666L201.881 366.599L205.031 364.783L208.585 366.851Z" fill="#1F5E77"/>
<path d="M206.342 369.171L209.468 367.355L213.046 369.398L209.921 371.213L206.342 369.171Z" fill="#1F5E77"/>
<path d="M213.928 369.902L217.507 371.97L214.357 373.785L210.778 371.717L213.928 369.902Z" fill="#1F5E77"/>
<path d="M156.892 345.391L153.313 343.324L156.464 341.508L160.018 343.576L156.892 345.391Z" fill="#1F5E77"/>
<path d="M157.775 345.896L160.9 344.055L164.479 346.123L161.354 347.938L157.775 345.896Z" fill="#1F5E77"/>
<path d="M162.21 348.443L165.361 346.627L168.915 348.695L165.789 350.51L162.21 348.443Z" fill="#1F5E77"/>
<path d="M166.671 351.015L169.822 349.199L173.376 351.242L170.25 353.057L166.671 351.015Z" fill="#1F5E77"/>
<path d="M171.107 353.587L174.258 351.746L177.837 353.814L174.686 355.629L171.107 353.587Z" fill="#1F5E77"/>
<path d="M175.568 356.134L178.719 354.318L182.273 356.386L179.147 358.201L175.568 356.134Z" fill="#1F5E77"/>
<path d="M180.03 358.706L183.155 356.89L186.734 358.933L183.609 360.748L180.03 358.706Z" fill="#1F5E77"/>
<path d="M184.465 361.278L187.616 359.437L191.169 361.505L188.044 363.32L184.465 361.278Z" fill="#1F5E77"/>
<path d="M188.926 363.825L192.052 362.009L195.63 364.077L192.505 365.892L188.926 363.825Z" fill="#1F5E77"/>
<path d="M193.362 366.397L196.513 364.581L200.092 366.624L196.941 368.439L193.362 366.397Z" fill="#1F5E77"/>
<path d="M197.823 368.969L200.974 367.128L204.527 369.196L201.402 371.011L197.823 368.969Z" fill="#1F5E77"/>
<path d="M202.284 371.516L205.409 369.7L208.988 371.768L205.863 373.584L202.284 371.516Z" fill="#1F5E77"/>
<path d="M209.871 372.272L213.424 374.315L210.299 376.13L206.72 374.088L209.871 372.272Z" fill="#1F5E77"/>
<path d="M152.835 347.737L149.256 345.694L152.406 343.853L155.96 345.921L152.835 347.737Z" fill="#1F5E77"/>
<path d="M153.692 348.241L156.842 346.425L160.421 348.468L157.296 350.283L153.692 348.241Z" fill="#1F5E77"/>
<path d="M158.153 350.813L161.303 348.997L164.857 351.04L161.732 352.855L158.153 350.813Z" fill="#1F5E77"/>
<path d="M162.614 353.36L165.739 351.544L169.318 353.612L166.193 355.428L162.614 353.36Z" fill="#1F5E77"/>
<path d="M167.05 355.932L170.2 354.116L173.754 356.184L170.629 358L167.05 355.932Z" fill="#1F5E77"/>
<path d="M171.511 358.504L174.661 356.663L178.215 358.731L175.09 360.547L171.511 358.504Z" fill="#1F5E77"/>
<path d="M175.947 361.051L179.097 359.235L182.676 361.303L179.526 363.119L175.947 361.051Z" fill="#1F5E77"/>
<path d="M180.408 363.623L183.558 361.807L187.112 363.85L183.987 365.666L180.408 363.623Z" fill="#1F5E77"/>
<path d="M184.869 366.195L187.994 364.354L191.573 366.422L188.448 368.238L184.869 366.195Z" fill="#1F5E77"/>
<path d="M189.305 368.742L192.455 366.926L196.009 368.994L192.884 370.81L189.305 368.742Z" fill="#1F5E77"/>
<path d="M193.766 371.314L196.891 369.498L200.47 371.541L197.345 373.357L193.766 371.314Z" fill="#1F5E77"/>
<path d="M198.201 373.886L201.352 372.045L204.931 374.113L201.78 375.929L198.201 373.886Z" fill="#1F5E77"/>
<path d="M205.813 374.617L209.367 376.685L206.242 378.501L202.663 376.433L205.813 374.617Z" fill="#1F5E77"/>
<path d="M148.323 346.224L151.902 348.266L148.777 350.082L145.198 348.039L148.323 346.224Z" fill="#1F5E77"/>
<path d="M156.338 350.838L153.213 352.654L149.634 350.586L152.784 348.77L156.338 350.838Z" fill="#1F5E77"/>
<path d="M160.799 353.41L157.674 355.226L154.095 353.158L157.22 351.343L160.799 353.41Z" fill="#1F5E77"/>
<path d="M165.26 355.957L162.135 357.773L158.556 355.73L161.681 353.889L165.26 355.957Z" fill="#1F5E77"/>
<path d="M169.696 358.529L166.571 360.345L162.992 358.277L166.142 356.461L169.696 358.529Z" fill="#1F5E77"/>
<path d="M174.157 361.076L171.032 362.892L167.453 360.849L170.578 359.034L174.157 361.076Z" fill="#1F5E77"/>
<path d="M175.039 361.606L179.475 364.152H179.5L180.357 364.657L183.936 366.725L185.751 367.758L188.397 369.271L191.195 370.911L196.412 373.911L193.287 375.727L187.843 372.575L185.247 371.112L182.55 369.549L180.786 368.54H180.811L177.282 366.523L176.35 365.968L171.889 363.421L175.039 361.606Z" fill="#1F5E77"/>
<path d="M200.848 376.458L197.722 378.274L194.144 376.231L197.294 374.416L200.848 376.458Z" fill="#1F5E77"/>
<path d="M205.309 379.03L202.183 380.846L198.604 378.803L201.73 376.963L205.309 379.03Z" fill="#1F5E77"/>
<path d="M227.815 372.146L230.941 370.331L234.52 372.373L231.394 374.189L227.815 372.146Z" fill="#1F5E77"/>
<path d="M232.277 374.718L235.402 372.877L238.981 374.945L235.831 376.761L232.277 374.718Z" fill="#1F5E77"/>
<path d="M236.712 377.265L239.863 375.45L243.417 377.517L240.291 379.333L236.712 377.265Z" fill="#1F5E77"/>
<path d="M230.462 374.743L227.337 376.559L223.758 374.491L226.883 372.676L230.462 374.743Z" fill="#1F5E77"/>
<path d="M234.898 377.29L231.773 379.106L228.194 377.063L231.344 375.248L234.898 377.29Z" fill="#1F5E77"/>
<path d="M239.359 379.862L236.234 381.678L232.655 379.635L235.78 377.795L239.359 379.862Z" fill="#1F5E77"/>
<path d="M226.404 377.089L223.254 378.904L219.7 376.862L222.825 375.021L226.404 377.089Z" fill="#1F5E77"/>
<path d="M230.84 379.661L227.715 381.476L224.136 379.409L227.286 377.593L230.84 379.661Z" fill="#1F5E77"/>
<path d="M235.301 382.208L232.176 384.023L228.597 381.981L231.722 380.165L235.301 382.208Z" fill="#1F5E77"/>
<path d="M215.617 379.207L218.768 377.391L222.347 379.434L219.196 381.249L215.617 379.207Z" fill="#1F5E77"/>
<path d="M220.078 381.779L223.203 379.938L226.782 382.006L223.657 383.821L220.078 381.779Z" fill="#1F5E77"/>
<path d="M224.514 384.326L227.665 382.51L231.244 384.578L228.093 386.394L224.514 384.326Z" fill="#1F5E77"/>
<path d="M211.559 381.552L214.71 379.736L218.263 381.804L215.138 383.62L211.559 381.552Z" fill="#1F5E77"/>
<path d="M216.021 384.124L219.146 382.308L222.725 384.351L219.599 386.167L216.021 384.124Z" fill="#1F5E77"/>
<path d="M220.456 386.696L223.607 384.855L227.185 386.923L224.035 388.739L220.456 386.696Z" fill="#1F5E77"/>
<path d="M214.206 384.149L211.08 385.965L207.501 383.922L210.652 382.107L214.206 384.149Z" fill="#1F5E77"/>
<path d="M218.667 386.721L215.541 388.537L211.962 386.469L215.088 384.654L218.667 386.721Z" fill="#1F5E77"/>
<path d="M196.336 322.646L221.011 308.323C221.521 308.019 222.105 307.858 222.699 307.858C223.294 307.858 223.877 308.019 224.388 308.323L282.911 342.138C283.124 342.272 283.3 342.458 283.422 342.679C283.544 342.899 283.608 343.147 283.608 343.399C283.608 343.651 283.544 343.899 283.422 344.12C283.3 344.34 283.124 344.526 282.911 344.66L258.791 358.655C258.184 359.015 257.492 359.204 256.787 359.204C256.082 359.204 255.39 359.015 254.783 358.655L196.336 324.916C196.143 324.796 195.984 324.628 195.874 324.43C195.764 324.231 195.706 324.008 195.706 323.781C195.706 323.554 195.764 323.33 195.874 323.132C195.984 322.933 196.143 322.766 196.336 322.646Z" fill="#1F5E77"/>
<path d="M196.337 324.941L254.784 358.68C255.39 359.04 256.082 359.23 256.787 359.23C257.492 359.23 258.185 359.04 258.791 358.68L282.911 344.685C283.133 344.551 283.316 344.363 283.444 344.138C283.572 343.913 283.64 343.658 283.642 343.399V346.501C283.641 346.757 283.573 347.008 283.445 347.229C283.316 347.45 283.132 347.634 282.911 347.762L258.791 361.631C258.182 361.983 257.491 362.168 256.787 362.168C256.084 362.168 255.393 361.983 254.784 361.631L196.337 327.866C196.135 327.747 195.969 327.577 195.854 327.373C195.739 327.17 195.679 326.94 195.681 326.706V323.806C195.684 324.036 195.746 324.261 195.86 324.459C195.975 324.658 196.139 324.824 196.337 324.941Z" fill="#07304B"/>
<path d="M196.337 324.941L254.784 358.68C255.336 359.004 255.959 359.186 256.598 359.21V362.211C255.961 362.195 255.338 362.022 254.784 361.707L196.337 327.942C196.135 327.822 195.969 327.653 195.854 327.449C195.739 327.245 195.679 327.015 195.681 326.782V323.806C195.684 324.036 195.746 324.261 195.86 324.459C195.975 324.658 196.139 324.824 196.337 324.941Z" fill="#0B3B56"/>
<path d="M260.328 324.89L214.861 298.539V321.083L260.328 347.409V324.89Z" fill="#0F4463"/>
<path d="M221.187 294.908L214.861 298.539L260.328 324.89L266.68 321.234L221.187 294.908Z" fill="#07304B"/>
<path d="M266.679 321.234L260.328 324.89V347.409L266.679 343.727V321.234Z" fill="#07304B"/>
<path d="M168.864 183.804L307.131 264.043V365.817L168.864 285.275V183.804Z" fill="url(#paint0_linear_32_2)"/>
<path d="M307.131 264.043L311.718 261.244V363.043L307.131 365.817V264.043Z" fill="#07304B"/>
<path d="M168.864 183.804L173.577 181.08L311.718 261.244L307.131 264.043L168.864 183.804Z" fill="#1F5E77"/>
<path d="M168.864 183.829V285.3L307.131 365.842V264.043L168.864 183.829ZM303.931 360.143L172.141 283.459V189.503L303.931 265.934V360.143Z" fill="#0B3B56"/>
<path d="M117.676 309.483C116.239 324.033 105.528 334.876 93.7325 333.716C81.9372 332.556 73.5696 319.822 75.0062 305.272C76.4428 290.722 87.1543 279.904 98.9244 281.064C110.695 282.224 119.113 294.958 117.676 309.483Z" fill="#FED4BD"/>
<path d="M135.293 343.374C135.293 343.374 140.334 344.61 142.199 344.786C144.064 344.963 150.718 346.375 153.465 345.543C156.212 344.711 150.944 342.87 149.76 341.937C148.575 341.004 148.55 338.608 151.323 337.776C154.095 336.944 160.396 337.322 163.723 336.843C167.05 336.364 160.421 326.302 155.002 325.369C149.968 324.358 144.74 325.069 140.157 327.387C135.545 329.656 133.025 333.514 130.882 334.246L135.293 343.374Z" fill="#F4C5A2"/>
<path d="M135.898 329.656L100.84 338.457L99.0757 360.723L140.46 346.501C141.317 338.659 135.898 329.656 135.898 329.656Z" fill="#ED5561"/>
<path d="M49.3737 339.087C49.3737 339.087 39.6703 351.292 49.3737 368.137C49.3737 368.137 56.1535 377.517 74.7537 368.313L49.3737 339.087Z" fill="#ED5561"/>
<path d="M78.1816 324.815C78.1816 324.815 93.3038 323.781 105.124 332.052C105.787 333.701 106.917 335.121 108.376 336.137C110.745 337.726 122.515 342.441 122.515 342.441C122.515 342.441 117.323 411.459 123.271 445.073C123.271 445.073 97.7396 465.019 57.7415 445.073C57.7415 445.073 51.9194 360.32 49.3486 339.163C49.3738 339.087 56.1032 330.867 78.1816 324.815Z" fill="#DE495A"/>
<path d="M71.5279 438.743L0 397.363L24.0695 467.137L95.6226 508.416L71.5279 438.743Z" fill="#BBCEE1"/>
<path d="M7.88874 392.773L0 397.363L71.5279 438.743L79.5175 434.103L7.88874 392.773Z" fill="white"/>
<path d="M79.5174 434.103L71.5278 438.743L95.6225 508.417L103.688 503.777L79.5174 434.103Z" fill="#A7BCCE"/>
<path d="M182.424 373.962C182.424 373.962 186.33 370.028 187.817 368.919C189.304 367.809 194.547 362.841 197.496 362.186C200.444 361.53 195.429 366.649 194.799 368.238C194.169 369.826 197.823 366.952 200.57 365.918C203.635 364.91 206.959 365.026 209.946 366.245C216.726 368.767 216.398 382.208 210.854 380.619C201.755 378.097 197.672 385.208 192.228 386.721C189.703 387.375 187.134 387.847 184.541 388.134L182.424 373.962Z" fill="#F4C5A2"/>
<path d="M122.464 342.441L152.028 381.653L182.776 372.575C182.776 372.575 189.38 380.896 187.238 389.697L146.206 405.684L112.862 368.994C112.862 368.994 101.747 345.694 122.464 342.441Z" fill="#ED5561"/>
<path d="M106.032 268.632C106.032 268.632 108.3 274.104 97.4122 275.592C86.5243 277.08 73.0907 282.476 69.537 293.975C67.2687 301.313 69.8899 309.105 73.5948 315.611C74.8349 317.84 76.2777 319.95 77.9047 321.915C83.4126 322.941 89.106 321.967 93.9594 319.166C97.6682 316.422 100.639 312.801 102.604 308.626C102.604 308.626 109.082 311.324 111.098 305.927C112.585 301.943 117.273 300.884 119.818 298.791C119.944 298.791 134.512 274.76 106.032 268.632Z" fill="#9D4D36"/>
<path d="M512.012 477.451L464.604 449.939V467.692L512.012 495.127V477.451Z" fill="#BBCEE1"/>
<path d="M513.599 421.772L464.604 449.939L512.012 477.451L561.058 449.258L513.599 421.772Z" fill="white"/>
<path d="M561.058 449.258L512.012 477.451V495.127L561.058 466.733V449.258Z" fill="#A7BCCE"/>
<path d="M512.012 448.452L464.604 420.915V438.668L512.012 466.103V448.452Z" fill="#BBCEE1"/>
<path d="M513.599 392.748L464.604 420.915L512.012 448.451L561.058 420.234L513.599 392.748Z" fill="white"/>
<path d="M561.058 420.234L512.012 448.451V466.103L561.058 437.709V420.234Z" fill="#A7BCCE"/>
<path d="M431.839 523.899L384.456 496.363V514.115L431.864 541.551L431.839 523.899Z" fill="#BBCEE1"/>
<path d="M433.452 468.196L384.456 496.363L431.839 523.899L480.91 495.682L433.452 468.196Z" fill="white"/>
<path d="M480.91 495.682L431.839 523.899L431.864 541.551L480.91 513.157V495.682Z" fill="#A7BCCE"/>
<path d="M431.839 494.875L384.456 467.364V485.091L431.864 512.552L431.839 494.875Z" fill="#BBCEE1"/>
<path d="M433.452 439.197L384.456 467.364L431.839 494.875L480.91 466.683L433.452 439.197Z" fill="white"/>
<path d="M480.91 466.683L431.839 494.875L431.864 512.552L480.91 484.158V466.683Z" fill="#A7BCCE"/>
<path d="M351.691 570.323L304.309 542.812V560.539L351.691 588V570.323Z" fill="#BBCEE1"/>
<path d="M353.304 514.645L304.309 542.812L351.691 570.323L400.763 542.131L353.304 514.645Z" fill="white"/>
<path d="M400.763 542.131L351.691 570.323V588L400.763 559.606V542.131Z" fill="#A7BCCE"/>
<path d="M351.691 541.299L304.309 513.788V531.54L351.691 558.976V541.299Z" fill="#BBCEE1"/>
<path d="M353.304 485.621L304.309 513.788L351.691 541.299L400.763 513.107L353.304 485.621Z" fill="white"/>
<path d="M400.763 513.107L351.691 541.299V558.976L400.763 530.582V513.107Z" fill="#A7BCCE"/>
<path d="M366.486 523.95L363.512 522.21C361.271 523.082 358.923 523.65 356.531 523.9V526.421H349.297V523.9C346.906 523.645 344.559 523.076 342.316 522.21L339.367 523.95L334.326 520.974L337.3 519.26C335.984 518.2 334.974 516.807 334.377 515.225H330.193V511.014H334.175C334.755 509.436 335.747 508.043 337.048 506.979L334.175 505.365L339.216 502.39L342.19 504.105C344.428 503.255 346.766 502.696 349.146 502.44V499.919H356.379V502.44C358.776 502.696 361.13 503.255 363.386 504.105L366.335 502.39L371.376 505.365L368.402 507.08C369.724 508.135 370.734 509.53 371.325 511.115H375.509V515.301H371.476C370.896 516.878 369.904 518.272 368.603 519.335L371.577 521.05L366.486 523.95ZM346.172 517.015C348.253 518.072 350.555 518.623 352.889 518.623C355.223 518.623 357.524 518.072 359.605 517.015C363.285 514.847 363.26 511.367 359.605 509.224C357.528 508.167 355.231 507.616 352.901 507.616C350.571 507.616 348.274 508.167 346.197 509.224C342.492 511.367 342.517 514.847 346.197 517.015" fill="#1C75BC"/>
<path d="M437.056 454.504L441.668 464.338L446.281 474.198L429.268 471.55L412.256 468.927L424.656 461.715L437.056 454.504Z" fill="#EF4136"/>
<path d="M495.05 418.141C492.529 416.653 493.638 414.51 498.528 411.66C500.53 410.48 502.708 409.629 504.98 409.139C506.533 408.711 508.187 408.854 509.643 409.542C510.143 409.812 510.567 410.202 510.878 410.677C511.122 411.081 511.317 411.512 511.457 411.963L515.944 410.854C515.686 410.132 515.283 409.471 514.759 408.912C514.207 408.321 513.559 407.827 512.844 407.449C510.301 406.052 507.375 405.513 504.501 405.911C500.934 406.365 497.5 407.559 494.42 409.416C491.819 410.595 489.695 412.622 488.396 415.166C487.791 417.006 488.673 418.595 490.916 419.982C492.464 420.882 494.18 421.457 495.957 421.671L499.435 419.654C497.896 419.41 496.412 418.898 495.05 418.141Z" fill="#91A6B7"/>
<path d="M516.347 423.563C516.774 422.503 516.774 421.319 516.347 420.259C516.026 419.54 515.904 418.747 515.994 417.965C516.081 417.649 516.237 417.356 516.451 417.107C516.664 416.859 516.93 416.661 517.229 416.527C517.903 416.122 518.663 415.88 519.447 415.821C520.175 415.784 520.9 415.95 521.539 416.3C522.051 416.592 522.504 416.977 522.875 417.435C523.146 417.839 523.39 418.26 523.605 418.696L528.041 417.637C527.345 416.136 526.177 414.905 524.714 414.132C523.001 413.143 521.046 412.653 519.069 412.72C517.028 412.733 515.027 413.29 513.272 414.334C512.479 414.767 511.763 415.329 511.155 415.998C510.748 416.507 510.464 417.102 510.323 417.738C510.245 418.497 510.339 419.265 510.6 419.982C510.932 420.778 511.037 421.651 510.903 422.504C510.826 422.833 510.675 423.141 510.461 423.403C510.247 423.666 509.976 423.875 509.668 424.017C508.988 424.42 508.215 424.637 507.425 424.647C506.602 424.668 505.79 424.458 505.081 424.042C503.771 423.261 502.773 422.048 502.258 420.612L498.402 422.857C499.259 424.305 500.52 425.471 502.031 426.21C503.81 427.281 505.853 427.831 507.929 427.799C510.048 427.746 512.117 427.137 513.927 426.034C514.964 425.473 515.808 424.612 516.347 423.563Z" fill="#91A6B7"/>
<path d="M536.888 421.218C535.174 420.228 533.221 419.731 531.242 419.78C529.202 419.821 527.206 420.386 525.446 421.419C524.655 421.845 523.947 422.409 523.354 423.084C522.928 423.58 522.641 424.18 522.522 424.824C522.429 425.575 522.524 426.337 522.799 427.043C523.113 427.844 523.217 428.712 523.102 429.564C523.007 429.886 522.849 430.186 522.636 430.445C522.424 430.705 522.163 430.92 521.867 431.077C521.175 431.473 520.395 431.69 519.598 431.708C518.784 431.729 517.98 431.52 517.28 431.103C515.964 430.328 514.964 429.113 514.457 427.673L510.601 429.917C511.44 431.371 512.695 432.539 514.205 433.271C515.99 434.327 518.029 434.876 520.102 434.86C522.23 434.806 524.306 434.198 526.126 433.095C527.183 432.573 528.061 431.748 528.646 430.724C529.086 429.658 529.086 428.462 528.646 427.396C528.338 426.681 528.217 425.9 528.294 425.126C528.389 424.808 528.551 424.513 528.768 424.261C528.985 424.009 529.253 423.805 529.554 423.664C530.23 423.267 530.99 423.034 531.772 422.983C532.501 422.934 533.228 423.101 533.863 423.462C534.374 423.746 534.82 424.132 535.174 424.597C535.455 424.994 535.7 425.416 535.905 425.858L540.341 424.773C539.622 423.234 538.405 421.981 536.888 421.218Z" fill="#91A6B7"/>
<path d="M510.953 262.832L464.906 236.279C464.205 235.867 463.4 235.665 462.587 235.696C461.774 235.728 460.987 235.991 460.319 236.456L450.238 242.281L454.951 248.661L456.69 250.678V296.295C456.687 297.63 457.038 298.943 457.706 300.099C458.375 301.255 459.337 302.213 460.496 302.876L494.949 322.823L495.302 324.739L502.334 334.599L513.146 328.219C513.649 327.908 514.063 327.474 514.35 326.958C514.637 326.441 514.786 325.859 514.784 325.269V269.792C514.815 268.397 514.477 267.019 513.805 265.797C513.132 264.574 512.148 263.552 510.953 262.832Z" fill="#79FF68"/>
<path d="M500.191 269.162L453.615 242.281C453.099 241.997 452.519 241.853 451.931 241.86C451.342 241.868 450.766 242.029 450.259 242.326C449.751 242.623 449.329 243.047 449.033 243.556C448.738 244.066 448.58 244.643 448.574 245.231V301.111C448.567 302.451 448.916 303.769 449.584 304.929C450.253 306.09 451.218 307.052 452.38 307.718L498.931 334.649C499.465 334.951 500.068 335.11 500.681 335.108C501.294 335.106 501.896 334.945 502.427 334.639C502.959 334.334 503.402 333.895 503.713 333.366C504.023 332.837 504.191 332.237 504.199 331.623V275.895C504.172 274.521 503.788 273.178 503.086 271.997C502.383 270.817 501.386 269.84 500.191 269.162Z" fill="#50E85E"/>
<path d="M504.123 331.522V275.895C504.102 274.977 503.914 274.072 503.569 273.222L514.381 266.993C514.683 267.801 514.853 268.653 514.885 269.515V324.991C514.887 325.582 514.737 326.164 514.45 326.68C514.164 327.197 513.749 327.631 513.247 327.942L502.535 334.246C502.998 333.952 503.384 333.551 503.66 333.077C503.937 332.603 504.095 332.07 504.123 331.522Z" fill="#3CC743"/>
<path d="M563.528 151.905L517.481 125.326C516.772 124.921 515.965 124.723 515.149 124.754C514.334 124.785 513.544 125.045 512.869 125.503L502.787 131.353L507.5 137.708L509.239 139.725V185.342C509.232 186.682 509.58 187.999 510.249 189.16C510.918 190.321 511.883 191.283 513.045 191.949L547.498 211.87L547.851 213.786L554.883 223.646L565.695 217.291C566.201 216.984 566.618 216.551 566.906 216.033C567.193 215.516 567.34 214.933 567.334 214.341V158.864C567.378 157.47 567.048 156.089 566.379 154.866C565.71 153.642 564.725 152.619 563.528 151.905Z" fill="#9263C1"/>
<path d="M552.867 158.234L506.291 131.328C505.772 131.051 505.191 130.912 504.604 130.925C504.016 130.938 503.442 131.101 502.936 131.4C502.43 131.699 502.009 132.123 501.713 132.631C501.418 133.14 501.259 133.716 501.25 134.303V190.158C501.247 191.494 501.598 192.806 502.266 193.962C502.935 195.118 503.897 196.076 505.056 196.74L551.607 223.671C552.139 223.975 552.74 224.135 553.353 224.133C553.965 224.132 554.566 223.97 555.097 223.664C555.627 223.358 556.068 222.918 556.375 222.389C556.683 221.859 556.846 221.258 556.849 220.645V164.942C556.831 163.573 556.453 162.232 555.754 161.055C555.056 159.878 554.06 158.905 552.867 158.234Z" fill="#8444B2"/>
<path d="M556.773 220.569V164.942C556.763 164.026 556.584 163.119 556.244 162.269L567.056 156.04C567.348 156.85 567.51 157.701 567.535 158.562V214.038C567.542 214.63 567.395 215.213 567.107 215.731C566.82 216.248 566.403 216.682 565.897 216.989L555.16 223.293C555.627 223 556.016 222.601 556.297 222.127C556.577 221.653 556.741 221.119 556.773 220.569Z" fill="#7231A3"/>
<path d="M409.786 152.712L363.663 126.133C362.955 125.728 362.147 125.53 361.332 125.561C360.517 125.592 359.726 125.852 359.051 126.31L348.97 132.135L353.683 138.515L355.422 140.532V186.149C355.415 187.489 355.763 188.806 356.432 189.967C357.101 191.128 358.065 192.09 359.228 192.755L393.681 212.677L394.034 214.593L401.066 224.453L411.878 218.098C412.38 217.788 412.795 217.353 413.082 216.837C413.369 216.32 413.518 215.739 413.516 215.148V159.671C413.568 158.284 413.25 156.909 412.594 155.686C411.939 154.462 410.969 153.436 409.786 152.712Z" fill="#FFA8E1"/>
<path d="M398.948 159.041L352.372 132.16C351.854 131.876 351.272 131.731 350.681 131.74C350.091 131.749 349.513 131.912 349.005 132.212C348.496 132.512 348.074 132.939 347.781 133.452C347.488 133.965 347.333 134.545 347.331 135.136V190.889C347.324 192.229 347.672 193.547 348.341 194.708C349.01 195.868 349.975 196.831 351.137 197.496L397.688 224.428C398.22 224.732 398.821 224.891 399.434 224.89C400.046 224.889 400.647 224.727 401.178 224.421C401.708 224.115 402.149 223.675 402.457 223.145C402.764 222.615 402.927 222.014 402.93 221.402V165.925C402.943 164.526 402.58 163.149 401.88 161.938C401.179 160.727 400.167 159.727 398.948 159.041Z" fill="#FF7AD2"/>
<path d="M402.855 221.376V165.9C402.845 164.984 402.665 164.078 402.326 163.227L413.138 156.998C413.43 157.808 413.591 158.659 413.617 159.52V214.997C413.619 215.587 413.469 216.169 413.182 216.685C412.895 217.202 412.481 217.636 411.978 217.947L401.242 224.251C401.729 223.944 402.131 223.521 402.413 223.019C402.695 222.517 402.847 221.952 402.855 221.376Z" fill="#DE64C6"/>
<path d="M308.971 45.1377L262.874 18.6855C262.166 18.2802 261.358 18.0818 260.542 18.1131C259.727 18.1443 258.937 18.4038 258.262 18.862L248.18 24.7122L252.868 31.0668L254.632 33.0842V78.7009C254.623 80.0382 254.967 81.3542 255.631 82.5148C256.296 83.6754 257.255 84.639 258.413 85.3077L292.866 105.229L293.219 107.145L300.251 117.005L311.063 110.65C311.575 110.349 311.999 109.917 312.291 109.399C312.583 108.881 312.733 108.295 312.727 107.7V52.2235C312.796 50.8136 312.484 49.4111 311.823 48.1639C311.162 46.9168 310.177 45.8713 308.971 45.1377Z" fill="#FCEC32"/>
<path d="M298.134 51.467L251.557 24.5609C251.039 24.2842 250.458 24.1454 249.87 24.1581C249.283 24.1707 248.708 24.3342 248.202 24.633C247.696 24.9318 247.275 25.3558 246.98 25.8642C246.685 26.3727 246.525 26.9485 246.517 27.5365V83.3155C246.514 84.651 246.865 85.9635 247.533 87.1195C248.201 88.2754 249.164 89.2338 250.322 89.8971L296.899 116.828C297.43 117.132 298.032 117.292 298.644 117.291C299.257 117.29 299.858 117.128 300.388 116.822C300.919 116.516 301.36 116.076 301.667 115.546C301.975 115.016 302.138 114.415 302.141 113.802V58.3259C302.149 56.9281 301.782 55.5538 301.077 54.3471C300.372 53.1403 299.355 52.1455 298.134 51.467Z" fill="#F5D012"/>
<path d="M302.066 113.802V58.3259C302.043 57.4112 301.864 56.5071 301.536 55.653L312.324 49.4245C312.634 50.2301 312.805 51.083 312.828 51.9461V107.423C312.834 108.017 312.684 108.603 312.392 109.121C312.1 109.639 311.676 110.071 311.164 110.373L300.453 116.677C300.937 116.367 301.337 115.943 301.618 115.441C301.899 114.94 302.053 114.377 302.066 113.802Z" fill="#EAA10C"/>
<path d="M389.749 169.985C387.317 165.564 383.794 161.84 379.516 159.167C378.045 158.104 376.319 157.449 374.514 157.268C372.708 157.086 370.886 157.385 369.233 158.133C364.192 161.008 363.613 169.657 367.519 178.306L354.917 185.518L358.597 191.898L371.199 184.686C373.381 187.803 376.187 190.431 379.441 192.402C380.905 193.458 382.622 194.11 384.418 194.291C386.215 194.473 388.027 194.178 389.673 193.436C395.369 190.309 395.394 179.769 389.749 169.985ZM385.994 187.157C384.939 187.631 383.779 187.82 382.63 187.705C381.48 187.59 380.38 187.175 379.441 186.502C376.697 184.803 374.44 182.423 372.888 179.592C369.283 173.339 369.283 166.581 372.888 164.462C373.942 163.988 375.102 163.8 376.252 163.915C377.402 164.03 378.501 164.445 379.441 165.118C382.173 166.842 384.427 169.227 385.994 172.053C389.623 178.332 389.623 185.115 385.994 187.157Z" fill="white"/>
<path d="M261.084 56.2581C261.862 56.7051 262.574 57.2566 263.201 57.8972C263.907 58.6033 264.613 59.3346 265.319 60.1415L266.629 57.1407C265.058 55.2789 263.194 53.6861 261.11 52.4253C259.713 51.5032 258.069 51.0283 256.397 51.0635C255.742 51.1231 255.114 51.349 254.571 51.7197C254.029 52.0904 253.59 52.5937 253.296 53.1817C252.503 54.8391 252.131 56.6667 252.213 58.5024C252.138 61.8019 252.883 65.0684 254.38 68.0091C255.808 70.741 257.997 73.0007 260.681 74.515C262.256 75.5109 264.027 76.1559 265.873 76.4062V72.5481C264.185 72.2873 262.556 71.7325 261.059 70.909C257.909 69.0934 256.321 65.8657 256.346 60.8224C256.152 59.1512 256.593 57.4681 257.581 56.1069C258.564 55.3504 259.623 55.3756 261.084 56.2581Z" fill="#8444B2"/>
<path d="M276.534 65.2101L273.711 63.571L273.686 69.3708L268.696 66.4709V69.7238L273.686 72.6237L273.661 78.3479L276.484 79.9618L276.509 74.2628L281.499 77.1375L281.524 73.8846L276.509 70.9847L276.534 65.2101Z" fill="#8444B2"/>
<path d="M291.606 79.7096L291.631 73.935L288.808 72.2959L288.783 78.0705L283.793 75.1958V78.4488L288.783 81.3487L288.758 87.0476L291.581 88.6867L291.606 82.9625L296.596 85.8624V82.6095L291.606 79.7096Z" fill="#8444B2"/>
<path d="M516.422 154.704C515.811 155.587 515.542 156.663 515.666 157.73V164.589C515.666 165.849 515.263 166.53 514.457 166.606C513.209 166.565 512.001 166.162 510.979 165.446V169.985C512.301 170.706 513.473 171.673 514.431 172.834C515.239 173.87 515.666 175.152 515.641 176.466V183.047C515.604 184.395 515.853 185.736 516.372 186.981C516.986 188.209 517.843 189.299 518.892 190.183C520.277 191.403 521.789 192.468 523.404 193.361V188.973C522.41 188.417 521.55 187.652 520.884 186.729C520.455 185.958 520.229 185.09 520.228 184.207V177.55C520.144 176.148 519.722 174.787 518.998 173.584C518.273 172.381 517.269 171.371 516.07 170.641V170.388C518.817 171.523 520.203 170.741 520.253 168.068V161.764C520.253 160.756 520.48 160.125 520.934 159.923C521.387 159.722 522.219 159.924 523.454 160.579V156.191C522.058 155.317 520.549 154.638 518.968 154.174C518.536 154.023 518.07 153.992 517.622 154.085C517.173 154.178 516.759 154.392 516.422 154.704Z" fill="white"/>
<path d="M542.458 182.82C541.686 181.844 541.269 180.635 541.273 179.391V172.507C541.332 170.518 540.729 168.567 539.559 166.959C537.922 164.999 535.908 163.386 533.637 162.218V166.606C534.632 167.147 535.494 167.906 536.157 168.825C536.592 169.594 536.818 170.463 536.812 171.347V177.651C536.896 179.096 537.321 180.502 538.052 181.751C538.784 183 539.801 184.058 541.021 184.837V185.09C540.064 184.57 538.94 184.452 537.896 184.762C537.165 185.115 536.787 185.922 536.787 187.283V193.789C536.787 194.798 536.56 195.428 536.132 195.655C535.703 195.882 534.821 195.655 533.611 194.975V199.362C535.346 200.651 537.426 201.389 539.585 201.48C540.719 201.253 541.298 200.068 541.298 197.9V191.318C541.298 189.956 541.702 189.2 542.483 189.074C543.732 189.104 544.944 189.508 545.961 190.234V185.594C544.633 184.893 543.445 183.952 542.458 182.82Z" fill="white"/>
<path d="M454.421 278.214L468.838 293.899L468.863 289.89L458.908 279.425L468.888 279.879V275.869L454.421 275.819V278.214Z" fill="#1F5E77"/>
<path d="M470.325 298.161L474.358 300.481L482.373 280.585L478.315 278.265L470.325 298.161Z" fill="#1F5E77"/>
<path d="M483.758 284.468V288.478L493.714 299.522L483.733 298.489L483.708 302.498L498.2 303.507V301.111L483.758 284.468Z" fill="#1F5E77"/>
<path d="M186.079 204.96V207.658L197.42 214.19V211.491L186.079 204.96Z" fill="#F5D012"/>
<path d="M186.079 209.878V212.576L197.42 219.132V216.434L186.079 209.878Z" fill="#EDF0F8"/>
<path d="M186.079 214.82V217.518L197.42 224.049V221.351L186.079 214.82Z" fill="#EDF0F8"/>
<path d="M271.62 271.809V269.111L201.654 228.74V231.438L271.62 271.809Z" fill="#EDF0F8"/>
<path d="M186.079 219.737V222.435L197.42 228.992V226.293L186.079 219.737Z" fill="#EDF0F8"/>
<path d="M186.079 224.68V227.378L197.42 233.909V231.211L186.079 224.68Z" fill="#EDF0F8"/>
<path d="M271.62 276.727V274.028L201.654 233.682V236.355L271.62 276.727Z" fill="#50E85E"/>
<path d="M186.079 239.457V242.155L197.42 248.711V246.013L186.079 239.457Z" fill="#EDF0F8"/>
<path d="M186.079 244.399V247.097L197.42 253.628V250.93L186.079 244.399Z" fill="#F5D012"/>
<path d="M186.079 264.118V266.817L197.42 273.373V270.649L186.079 264.118Z" fill="#EDF0F8"/>
<path d="M186.079 269.061V271.759L197.42 278.29V275.592L186.079 269.061Z" fill="#EDF0F8"/>
<path d="M245.786 303.507L201.654 278.038V280.736L245.786 306.205V303.507Z" fill="#50E85E"/>
<path d="M248.104 304.843V307.567L271.619 321.108V318.41L248.104 304.843Z" fill="#EDF0F8"/>
<path d="M223.833 285.905L201.654 273.121V275.819L223.833 288.604V285.905Z" fill="#EDF0F8"/>
<path d="M226.152 287.267V289.94L271.62 316.191V313.492L226.152 287.267Z" fill="#EDF0F8"/>
<path d="M265.621 295.236V297.934L271.62 301.388V298.69L265.621 295.236Z" fill="#EDF0F8"/>
<path d="M233.083 271.532L201.654 253.401V256.099L233.083 274.23V271.532Z" fill="#ED5561"/>
<path d="M220.204 224.654L201.654 213.937V216.636L220.204 227.353V224.654Z" fill="#EDF0F8"/>
<path d="M250.625 242.205L222.548 225.991V228.689L250.625 244.903V242.205Z" fill="#EDF0F8"/>
<path d="M234.243 237.691L214.483 226.268V228.966L234.243 240.39V237.691Z" fill="#EDF0F8"/>
<path d="M255.01 249.644L236.586 239.028V241.726L255.01 252.367V249.644Z" fill="#ED5561"/>
<path d="M257.329 251.006V253.704L271.62 261.95V259.252L257.329 251.006Z" fill="#EDF0F8"/>
<path d="M205.309 225.915V228.613L220.204 237.212V234.514L205.309 225.915Z" fill="#ED5561"/>
<path d="M265.772 260.815L222.548 235.851V238.549L265.772 263.513V260.815Z" fill="#EDF0F8"/>
<path d="M241.022 261.319L212.769 245.004V247.702L241.022 264.017V261.319Z" fill="#EDF0F8"/>
<path d="M265.773 275.592L243.341 262.656V265.354L265.773 278.29V275.592Z" fill="#EDF0F8"/>
<path d="M263.302 288.957L235.427 272.869V275.567L263.302 291.655V288.957Z" fill="#EDF0F8"/>
<path d="M248.104 285.124V287.822L263.302 296.597V293.899L248.104 285.124Z" fill="#50E85E"/>
<path d="M207.123 261.471L201.654 258.319V261.017L207.123 264.169V261.471Z" fill="#EDF0F8"/>
<path d="M217.381 267.397V270.095L245.786 286.485V283.787L217.381 267.397Z" fill="#EDF0F8"/>
<path d="M215.062 266.06L209.467 262.832V265.531L215.062 268.758V266.06Z" fill="#EDF0F8"/>
<path d="M240.543 285.679L209.467 267.75V270.448L240.543 288.377V285.679Z" fill="#EDF0F8"/>
<path d="M276.534 257.184V257.915L279.659 259.731V258.974L276.534 257.184Z" fill="#EDF0F8"/>
<path d="M276.534 258.546V259.277L279.659 261.092V260.336L276.534 258.546Z" fill="#EDF0F8"/>
<path d="M276.534 259.907V260.638L279.659 262.454V261.698L276.534 259.907Z" fill="#EDF0F8"/>
<path d="M300.1 275.592V274.861L280.819 263.74V264.471L300.1 275.592Z" fill="#EDF0F8"/>
<path d="M276.534 261.269V262L279.659 263.791V263.059L276.534 261.269Z" fill="#EDF0F8"/>
<path d="M276.534 262.605V263.362L279.659 265.152V264.421L276.534 262.605Z" fill="#EDF0F8"/>
<path d="M300.1 276.954V276.222L280.819 265.102V265.833L300.1 276.954Z" fill="#EDF0F8"/>
<path d="M276.534 266.69V267.447L279.659 269.237V268.506L276.534 266.69Z" fill="#EDF0F8"/>
<path d="M276.534 268.052V268.783L279.659 270.599V269.843L276.534 268.052Z" fill="#EDF0F8"/>
<path d="M276.534 273.474V274.23L279.659 276.046V275.289L276.534 273.474Z" fill="#EDF0F8"/>
<path d="M276.534 274.835V275.592L279.659 277.382V276.651L276.534 274.835Z" fill="#EDF0F8"/>
<path d="M292.992 284.342L280.819 277.332V278.063L292.992 285.073V284.342Z" fill="#EDF0F8"/>
<path d="M293.622 284.72V285.452L300.099 289.184V288.452L293.622 284.72Z" fill="#EDF0F8"/>
<path d="M286.943 279.5L280.819 275.97V276.701L286.943 280.232V279.5Z" fill="#EDF0F8"/>
<path d="M287.573 279.854V280.61L300.099 287.822V287.091L287.573 279.854Z" fill="#EDF0F8"/>
<path d="M298.461 282.073V282.804L300.1 283.762V283.006L298.461 282.073Z" fill="#EDF0F8"/>
<path d="M289.489 275.516L280.819 270.523V271.28L289.489 276.273V275.516Z" fill="#EDF0F8"/>
<path d="M285.935 262.605L280.819 259.655V260.412L285.935 263.362V262.605Z" fill="#EDF0F8"/>
<path d="M294.328 267.447L286.565 262.984V263.715L294.328 268.178V267.447Z" fill="#EDF0F8"/>
<path d="M289.791 266.211L284.347 263.059V263.791L289.791 266.943V266.211Z" fill="#EDF0F8"/>
<path d="M295.513 269.49L290.447 266.564V267.321L295.513 270.246V269.49Z" fill="#EDF0F8"/>
<path d="M296.168 269.868V270.624L300.1 272.894V272.137L296.168 269.868Z" fill="#EDF0F8"/>
<path d="M281.827 262.958V263.715L285.935 266.06V265.329L281.827 262.958Z" fill="#EDF0F8"/>
<path d="M298.487 272.566L286.565 265.707V266.438L298.487 273.322V272.566Z" fill="#EDF0F8"/>
<path d="M291.656 272.717L283.894 268.229V268.96L291.656 273.448V272.717Z" fill="#EDF0F8"/>
<path d="M298.486 276.651L292.312 273.095V273.827L298.486 277.382V276.651Z" fill="#EDF0F8"/>
<path d="M297.806 280.333L290.119 275.895V276.651L297.806 281.089V280.333Z" fill="#EDF0F8"/>
<path d="M293.622 279.274V280.03L297.806 282.426V281.694L293.622 279.274Z" fill="#EDF0F8"/>
<path d="M282.331 272.768L280.819 271.885V272.642L282.331 273.499V272.768Z" fill="#EDF0F8"/>
<path d="M285.154 274.382V275.138L292.992 279.652V278.895L285.154 274.382Z" fill="#EDF0F8"/>
<path d="M284.524 274.028L282.961 273.121V273.877L284.524 274.76V274.028Z" fill="#EDF0F8"/>
<path d="M291.53 279.425L282.961 274.482V275.239L291.53 280.181V279.425Z" fill="#EDF0F8"/>
<path d="M276.534 280.181V280.913L279.659 282.728V281.972L276.534 280.181Z" fill="#EDF0F8"/>
<path d="M276.534 281.518V282.274L279.659 284.09V283.333L276.534 281.518Z" fill="#EDF0F8"/>
<path d="M276.534 282.88V283.636L279.659 285.426V284.695L276.534 282.88Z" fill="#EDF0F8"/>
<path d="M300.1 298.589V297.858L280.819 286.738V287.469L300.1 298.589Z" fill="#EDF0F8"/>
<path d="M276.534 284.241V284.998L279.659 286.788V286.057L276.534 284.241Z" fill="#EDF0F8"/>
<path d="M276.534 285.603V286.359L279.659 288.15V287.419L276.534 285.603Z" fill="#EDF0F8"/>
<path d="M300.1 299.951V299.22L280.819 288.074V288.831L300.1 299.951Z" fill="#EDF0F8"/>
<path d="M276.534 289.688V290.419L279.659 292.235V291.478L276.534 289.688Z" fill="#EDF0F8"/>
<path d="M276.534 291.05V291.781L279.659 293.597V292.84L276.534 291.05Z" fill="#EDF0F8"/>
<path d="M276.534 296.471V297.228L279.659 299.018V298.287L276.534 296.471Z" fill="#EDF0F8"/>
<path d="M276.534 297.833V298.589L279.659 300.38V299.649L276.534 297.833Z" fill="#EDF0F8"/>
<path d="M292.992 307.34L280.819 300.304V301.061L292.992 308.071V307.34Z" fill="#EDF0F8"/>
<path d="M293.622 307.693V308.449L300.099 312.181V311.425L293.622 307.693Z" fill="#EDF0F8"/>
<path d="M286.943 302.473L280.819 298.968V299.699L286.943 303.229V302.473Z" fill="#EDF0F8"/>
<path d="M287.573 302.851V303.582L300.099 310.819V310.088L287.573 302.851Z" fill="#EDF0F8"/>
<path d="M298.461 305.045V305.801L300.1 306.734V306.003L298.461 305.045Z" fill="#EDF0F8"/>
<path d="M289.489 298.514L280.819 293.521V294.252L289.489 299.27V298.514Z" fill="#EDF0F8"/>
<path d="M285.935 285.603L280.819 282.653V283.384L285.935 286.334V285.603Z" fill="#EDF0F8"/>
<path d="M294.328 290.444L286.565 285.981V286.712L294.328 291.176V290.444Z" fill="#EDF0F8"/>
<path d="M289.791 289.184L284.347 286.057V286.788L289.791 289.94V289.184Z" fill="#EDF0F8"/>
<path d="M295.513 292.487L290.447 289.562V290.318L295.513 293.244V292.487Z" fill="#EDF0F8"/>
<path d="M296.168 292.865V293.597L300.1 295.866V295.135L296.168 292.865Z" fill="#EDF0F8"/>
<path d="M281.827 285.956V286.687L285.935 289.058V288.326L281.827 285.956Z" fill="#EDF0F8"/>
<path d="M298.487 295.563L286.565 288.679V289.436L298.487 296.295V295.563Z" fill="#EDF0F8"/>
<path d="M291.656 295.715L283.894 291.201V291.957L291.656 296.446V295.715Z" fill="#EDF0F8"/>
<path d="M298.486 299.649L292.312 296.068V296.824L298.486 300.38V299.649Z" fill="#EDF0F8"/>
<path d="M297.806 303.33L290.119 298.892V299.623L297.806 304.061V303.33Z" fill="#EDF0F8"/>
<path d="M293.622 302.271V303.002L297.806 305.423V304.692L293.622 302.271Z" fill="#EDF0F8"/>
<path d="M282.331 295.74L280.819 294.883V295.614L282.331 296.496V295.74Z" fill="#EDF0F8"/>
<path d="M285.154 297.379V298.11L292.992 302.649V301.893L285.154 297.379Z" fill="#EDF0F8"/>
<path d="M284.524 297.001L282.961 296.118V296.849L284.524 297.757V297.001Z" fill="#EDF0F8"/>
<path d="M291.53 302.422L282.961 297.48V298.211L291.53 303.154V302.422Z" fill="#EDF0F8"/>
<path d="M276.534 303.154V303.91L279.659 305.701V304.969L276.534 303.154Z" fill="#EDF0F8"/>
<path d="M276.534 304.515V305.272L279.659 307.062V306.331L276.534 304.515Z" fill="#EDF0F8"/>
<path d="M276.534 305.877V306.633L279.659 308.424V307.693L276.534 305.877Z" fill="#EDF0F8"/>
<path d="M300.1 321.587V320.83L280.819 309.71V310.466L300.1 321.587Z" fill="#EDF0F8"/>
<path d="M276.534 307.239V307.995L279.659 309.786V309.054L276.534 307.239Z" fill="#EDF0F8"/>
<path d="M276.534 308.6V309.332L279.659 311.147V310.391L276.534 308.6Z" fill="#EDF0F8"/>
<path d="M300.1 322.949V322.192L280.819 311.072V311.828L300.1 322.949Z" fill="#EDF0F8"/>
<path d="M276.534 312.685V313.417L279.659 315.207V314.476L276.534 312.685Z" fill="#EDF0F8"/>
<path d="M276.534 314.022V314.778L279.659 316.569V315.838L276.534 314.022Z" fill="#EDF0F8"/>
<path d="M276.534 319.469V320.2L279.659 322.016V321.259L276.534 319.469Z" fill="#EDF0F8"/>
<path d="M276.534 320.83V321.562L279.659 323.377V322.621L276.534 320.83Z" fill="#EDF0F8"/>
<path d="M292.992 330.312L280.819 323.302V324.058L292.992 331.068V330.312Z" fill="#EDF0F8"/>
<path d="M293.622 330.69V331.447L300.099 335.179V334.422L293.622 330.69Z" fill="#EDF0F8"/>
<path d="M286.943 325.47L280.819 321.94V322.696L286.943 326.227V325.47Z" fill="#EDF0F8"/>
<path d="M287.573 325.849V326.58L300.099 333.817V333.06L287.573 325.849Z" fill="#EDF0F8"/>
<path d="M298.461 328.042V328.774L300.1 329.732V329.001L298.461 328.042Z" fill="#EDF0F8"/>
<path d="M289.489 321.511L280.819 316.518V317.25L289.489 322.243V321.511Z" fill="#EDF0F8"/>
<path d="M285.935 308.6L280.819 305.65V306.381L285.935 309.332V308.6Z" fill="#EDF0F8"/>
<path d="M294.328 313.417L286.565 308.953V309.71L294.328 314.173V313.417Z" fill="#EDF0F8"/>
<path d="M289.791 312.181L284.347 309.029V309.786L289.791 312.912V312.181Z" fill="#EDF0F8"/>
<path d="M295.513 315.485L290.447 312.559V313.291L295.513 316.216V315.485Z" fill="#EDF0F8"/>
<path d="M296.168 315.838V316.594L300.1 318.864V318.132L296.168 315.838Z" fill="#EDF0F8"/>
<path d="M281.827 308.928V309.685L285.935 312.055V311.299L281.827 308.928Z" fill="#EDF0F8"/>
<path d="M298.487 318.561L286.565 311.677V312.408L298.487 319.292V318.561Z" fill="#EDF0F8"/>
<path d="M291.656 318.687L283.894 314.198V314.93L291.656 319.444V318.687Z" fill="#EDF0F8"/>
<path d="M298.486 322.621L292.312 319.065V319.797L298.486 323.377V322.621Z" fill="#EDF0F8"/>
<path d="M297.806 326.302L290.119 321.864V322.621L297.806 327.059V326.302Z" fill="#EDF0F8"/>
<path d="M293.622 325.269V326L297.806 328.421V327.664L293.622 325.269Z" fill="#EDF0F8"/>
<path d="M282.331 318.737L280.819 317.88V318.611L282.331 319.469V318.737Z" fill="#EDF0F8"/>
<path d="M285.154 320.377V321.108L292.992 325.622V324.89L285.154 320.377Z" fill="#EDF0F8"/>
<path d="M284.524 319.998L282.961 319.116V319.847L284.524 320.73V319.998Z" fill="#EDF0F8"/>
<path d="M291.53 325.42L282.961 320.477V321.209L291.53 326.151V325.42Z" fill="#EDF0F8"/>
<path d="M276.534 326.151V326.908L279.659 328.698V327.967L276.534 326.151Z" fill="#EDF0F8"/>
<path d="M276.534 327.513V328.244L279.659 330.06V329.303L276.534 327.513Z" fill="#EDF0F8"/>
<path d="M276.534 328.875V329.606L279.659 331.421V330.665L276.534 328.875Z" fill="#EDF0F8"/>
<path d="M300.1 344.584V343.828L280.819 332.707V333.464L300.1 344.584Z" fill="#EDF0F8"/>
<path d="M276.534 330.236V330.968L279.659 332.783V332.027L276.534 330.236Z" fill="#EDF0F8"/>
<path d="M276.534 331.598V332.329L279.659 334.12V333.388L276.534 331.598Z" fill="#EDF0F8"/>
<path d="M300.1 345.921V345.19L280.819 334.069V334.8L300.1 345.921Z" fill="#EDF0F8"/>
<path d="M276.534 335.658V336.414L279.659 338.205V337.473L276.534 335.658Z" fill="#EDF0F8"/>
<path d="M276.534 337.019V337.776L279.659 339.566V338.835L276.534 337.019Z" fill="#EDF0F8"/>
<path d="M298.461 351.04V351.771L300.1 352.729V351.973L298.461 351.04Z" fill="#EDF0F8"/>
<path d="M289.489 344.509L280.819 339.491V340.247L289.489 345.24V344.509Z" fill="#EDF0F8"/>
<path d="M285.935 331.573L280.819 328.622V329.379L285.935 332.329V331.573Z" fill="#EDF0F8"/>
<path d="M294.328 336.414L286.565 331.951V332.707L294.328 337.171V336.414Z" fill="#EDF0F8"/>
<path d="M289.791 335.179L284.347 332.027V332.783L289.791 335.91V335.179Z" fill="#EDF0F8"/>
<path d="M295.513 338.482L290.447 335.532V336.288L295.513 339.213V338.482Z" fill="#EDF0F8"/>
<path d="M296.168 338.835V339.592L300.1 341.861V341.105L296.168 338.835Z" fill="#EDF0F8"/>
<path d="M281.827 331.926V332.682L285.935 335.053V334.296L281.827 331.926Z" fill="#EDF0F8"/>
<path d="M298.487 341.533L286.565 334.674V335.406L298.487 342.29V341.533Z" fill="#EDF0F8"/>
<path d="M291.656 341.685L283.894 337.196V337.927L291.656 342.416V341.685Z" fill="#EDF0F8"/>
<path d="M298.486 345.618L292.312 342.063V342.794L298.486 346.375V345.618Z" fill="#EDF0F8"/>
<path d="M297.806 349.3L290.119 344.862V345.618L297.806 350.056V349.3Z" fill="#EDF0F8"/>
<path d="M293.622 348.241V348.997L297.806 351.393V350.662L293.622 348.241Z" fill="#EDF0F8"/>
<path d="M282.331 341.735L280.819 340.852V341.609L282.331 342.466V341.735Z" fill="#EDF0F8"/>
<path d="M285.154 343.349V344.105L292.992 348.619V347.888L285.154 343.349Z" fill="#EDF0F8"/>
<path d="M284.524 342.996L282.961 342.088V342.845L284.524 343.727V342.996Z" fill="#EDF0F8"/>
<path d="M291.53 348.392L282.961 343.45V344.206L291.53 349.149V348.392Z" fill="#EDF0F8"/>
<path d="M178.819 200.774L175.089 198.606C175.046 198.577 174.996 198.562 174.944 198.56C174.892 198.559 174.841 198.572 174.797 198.599C174.752 198.625 174.716 198.663 174.692 198.709C174.668 198.755 174.657 198.806 174.661 198.858V203.321C174.66 203.432 174.69 203.54 174.748 203.634C174.806 203.728 174.889 203.803 174.989 203.851L178.719 206.019C178.761 206.041 178.809 206.052 178.857 206.049C178.905 206.047 178.951 206.033 178.992 206.008C179.032 205.982 179.066 205.947 179.088 205.905C179.111 205.862 179.123 205.815 179.122 205.767V201.304C179.129 201.196 179.104 201.088 179.05 200.994C178.996 200.9 178.916 200.823 178.819 200.774Z" fill="#50E85E"/>
<path d="M178.82 207.457L175.09 205.313C175.048 205.286 175 205.271 174.951 205.269C174.902 205.266 174.852 205.277 174.809 205.301C174.765 205.324 174.728 205.358 174.702 205.4C174.676 205.443 174.662 205.491 174.661 205.54V210.004C174.66 210.114 174.69 210.222 174.748 210.316C174.806 210.41 174.89 210.485 174.989 210.533L178.719 212.702C178.762 212.724 178.809 212.734 178.857 212.732C178.905 212.73 178.951 212.715 178.992 212.69C179.033 212.665 179.066 212.629 179.089 212.587C179.112 212.545 179.123 212.498 179.122 212.45V208.012C179.125 207.901 179.099 207.791 179.046 207.693C178.992 207.596 178.915 207.514 178.82 207.457Z" fill="#50E85E"/>
<path d="M178.82 214.139L175.09 211.996C175.048 211.969 175 211.953 174.951 211.951C174.901 211.949 174.852 211.96 174.809 211.983C174.765 212.006 174.728 212.041 174.702 212.083C174.676 212.125 174.662 212.173 174.661 212.223V216.711C174.668 216.82 174.701 216.925 174.758 217.017C174.815 217.11 174.895 217.187 174.989 217.241L178.719 219.384C178.758 219.414 178.805 219.432 178.854 219.435C178.903 219.438 178.952 219.427 178.995 219.403C179.038 219.379 179.073 219.343 179.095 219.299C179.118 219.256 179.127 219.206 179.122 219.157V214.694C179.125 214.583 179.099 214.473 179.045 214.376C178.992 214.278 178.914 214.197 178.82 214.139Z" fill="#50E85E"/>
<path d="M178.819 220.847L175.089 218.678C175.046 218.65 174.996 218.634 174.944 218.633C174.892 218.632 174.841 218.645 174.797 218.671C174.752 218.697 174.716 218.735 174.692 218.781C174.668 218.827 174.657 218.879 174.661 218.93V223.394C174.66 223.504 174.69 223.612 174.748 223.706C174.806 223.8 174.889 223.875 174.989 223.923L178.719 226.092C178.761 226.114 178.809 226.124 178.857 226.122C178.905 226.12 178.951 226.105 178.992 226.08C179.032 226.055 179.066 226.019 179.088 225.977C179.111 225.935 179.123 225.888 179.122 225.84V221.376C179.129 221.268 179.104 221.16 179.05 221.066C178.996 220.972 178.916 220.896 178.819 220.847Z" fill="#50E85E"/>
<path d="M178.82 227.529L175.09 225.386C175.048 225.359 175 225.343 174.951 225.341C174.902 225.339 174.852 225.35 174.809 225.373C174.765 225.396 174.728 225.431 174.702 225.473C174.676 225.515 174.662 225.563 174.661 225.613V230.076C174.66 230.186 174.69 230.295 174.748 230.389C174.806 230.482 174.89 230.558 174.989 230.606L178.719 232.774C178.762 232.796 178.809 232.806 178.857 232.804C178.905 232.802 178.951 232.788 178.992 232.762C179.033 232.737 179.066 232.701 179.089 232.659C179.112 232.617 179.123 232.57 179.122 232.522V227.983C179.111 227.889 179.078 227.799 179.025 227.72C178.973 227.641 178.902 227.576 178.82 227.529Z" fill="#50E85E"/>
<path d="M178.82 234.212L175.09 232.068C175.048 232.041 175 232.026 174.951 232.023C174.901 232.021 174.852 232.032 174.809 232.055C174.765 232.079 174.728 232.113 174.702 232.155C174.676 232.197 174.662 232.246 174.661 232.295V236.784C174.668 236.892 174.701 236.997 174.758 237.09C174.815 237.182 174.895 237.259 174.989 237.313L178.719 239.457C178.76 239.478 178.805 239.488 178.851 239.487C178.897 239.486 178.942 239.474 178.982 239.452C179.022 239.429 179.055 239.397 179.08 239.358C179.104 239.32 179.119 239.275 179.122 239.23V234.766C179.125 234.655 179.099 234.546 179.045 234.448C178.992 234.351 178.914 234.269 178.82 234.212Z" fill="#50E85E"/>
<path d="M178.819 240.919L175.089 238.751C175.046 238.722 174.996 238.706 174.944 238.705C174.892 238.704 174.841 238.717 174.797 238.743C174.752 238.77 174.716 238.808 174.692 238.854C174.668 238.899 174.657 238.951 174.661 239.003V243.466C174.66 243.576 174.69 243.685 174.748 243.779C174.806 243.872 174.889 243.948 174.989 243.996L178.719 246.164C178.761 246.186 178.809 246.196 178.857 246.194C178.905 246.192 178.951 246.178 178.992 246.152C179.032 246.127 179.066 246.091 179.088 246.049C179.111 246.007 179.123 245.96 179.122 245.912V241.449C179.129 241.34 179.104 241.233 179.05 241.139C178.996 241.044 178.916 240.968 178.819 240.919Z" fill="#50E85E"/>
<path d="M178.82 247.602L175.09 245.433C175.045 245.412 174.997 245.403 174.948 245.405C174.899 245.408 174.852 245.422 174.809 245.447C174.767 245.472 174.732 245.506 174.706 245.548C174.68 245.589 174.665 245.636 174.661 245.685V250.148C174.66 250.259 174.69 250.367 174.748 250.461C174.806 250.555 174.89 250.63 174.989 250.678L178.719 252.847C178.762 252.868 178.809 252.879 178.857 252.877C178.905 252.875 178.951 252.86 178.992 252.835C179.033 252.809 179.066 252.774 179.089 252.732C179.112 252.69 179.123 252.642 179.122 252.594V248.156C179.128 248.045 179.102 247.934 179.049 247.836C178.996 247.738 178.916 247.657 178.82 247.602Z" fill="#50E85E"/>
<path d="M178.82 254.284L175.09 252.141C175.048 252.114 175 252.098 174.951 252.096C174.901 252.094 174.852 252.105 174.809 252.128C174.765 252.151 174.728 252.185 174.702 252.228C174.676 252.27 174.662 252.318 174.661 252.367V256.856C174.664 256.962 174.697 257.065 174.755 257.154C174.812 257.243 174.893 257.314 174.989 257.36L178.719 259.529C178.76 259.55 178.805 259.56 178.851 259.56C178.897 259.559 178.942 259.547 178.982 259.524C179.022 259.502 179.055 259.469 179.08 259.431C179.104 259.392 179.119 259.348 179.122 259.302V254.839C179.125 254.728 179.099 254.618 179.045 254.521C178.992 254.423 178.914 254.342 178.82 254.284Z" fill="#50E85E"/>
<path d="M178.819 260.992L175.089 258.823C175.046 258.795 174.996 258.779 174.944 258.778C174.892 258.776 174.841 258.79 174.797 258.816C174.752 258.842 174.716 258.88 174.692 258.926C174.668 258.972 174.657 259.023 174.661 259.075V263.538C174.662 263.648 174.694 263.755 174.751 263.849C174.809 263.942 174.891 264.018 174.989 264.068L178.719 266.211C178.758 266.241 178.805 266.259 178.854 266.262C178.903 266.266 178.952 266.255 178.995 266.23C179.038 266.206 179.073 266.17 179.095 266.126C179.118 266.083 179.127 266.033 179.122 265.984V261.521C179.129 261.413 179.104 261.305 179.05 261.211C178.996 261.117 178.916 261.041 178.819 260.992Z" fill="#50E85E"/>
<path d="M178.819 267.674L175.089 265.505C175.046 265.477 174.996 265.461 174.944 265.46C174.892 265.459 174.841 265.472 174.797 265.498C174.752 265.524 174.716 265.563 174.692 265.608C174.668 265.654 174.657 265.706 174.661 265.757V270.221C174.66 270.331 174.69 270.44 174.748 270.533C174.806 270.627 174.889 270.702 174.989 270.75L178.719 272.919C178.761 272.941 178.809 272.951 178.857 272.949C178.905 272.947 178.951 272.933 178.992 272.907C179.032 272.882 179.066 272.846 179.088 272.804C179.111 272.762 179.123 272.715 179.122 272.667V268.33C179.149 268.202 179.134 268.07 179.079 267.952C179.025 267.834 178.934 267.736 178.819 267.674Z" fill="#50E85E"/>
<path d="M178.82 274.356L175.09 272.213C175.048 272.186 175 272.17 174.951 272.168C174.901 272.166 174.852 272.177 174.809 272.2C174.765 272.223 174.728 272.258 174.702 272.3C174.676 272.342 174.662 272.39 174.661 272.44V276.928C174.664 277.034 174.697 277.137 174.755 277.226C174.812 277.315 174.893 277.387 174.989 277.433L178.719 279.601C178.762 279.623 178.809 279.634 178.857 279.631C178.905 279.629 178.951 279.615 178.992 279.59C179.033 279.564 179.066 279.529 179.089 279.487C179.112 279.444 179.123 279.397 179.122 279.349V274.911C179.125 274.8 179.099 274.69 179.045 274.593C178.992 274.496 178.914 274.414 178.82 274.356Z" fill="#50E85E"/>
<g opacity="0.4">
<path d="M354.212 224.478V227.176L365.554 233.707V231.009L354.212 224.478Z" fill="white"/>
<path d="M354.212 229.395V232.093L365.554 238.65V235.926L354.212 229.395Z" fill="white"/>
<path d="M354.212 234.338V237.036L365.554 243.567V240.869L354.212 234.338Z" fill="white"/>
<path d="M439.753 291.327V288.629L369.813 248.257V250.955L439.753 291.327Z" fill="white"/>
<path d="M354.212 239.255V241.953L365.554 248.509V245.811L354.212 239.255Z" fill="white"/>
<path d="M354.212 244.197V246.895L365.554 253.427V250.728L354.212 244.197Z" fill="white"/>
<path d="M439.753 296.244V293.546L369.813 253.2V255.873L439.753 296.244Z" fill="white"/>
<path d="M354.212 258.974V261.698L365.554 268.229V265.531L354.212 258.974Z" fill="white"/>
<path d="M354.212 263.917V266.615L365.554 273.146V270.448L354.212 263.917Z" fill="white"/>
<path d="M354.212 283.636V286.334L365.554 292.89V290.192L354.212 283.636Z" fill="white"/>
<path d="M354.212 288.578V291.277L365.554 297.808V295.11L354.212 288.578Z" fill="white"/>
<path d="M413.945 323.024L369.813 297.556V300.279L413.945 325.722V323.024Z" fill="white"/>
<path d="M416.263 324.361V327.084L439.753 340.625V337.927L416.263 324.361Z" fill="white"/>
<path d="M391.992 305.423L369.813 292.638V295.336L391.992 308.121V305.423Z" fill="white"/>
<path d="M394.311 306.785V309.458L439.753 335.708V333.01L394.311 306.785Z" fill="white"/>
<path d="M433.78 314.753V317.451L439.753 320.906V318.208L433.78 314.753Z" fill="white"/>
<path d="M401.242 291.05L369.813 272.919V275.617L401.242 293.748V291.05Z" fill="white"/>
<path d="M388.363 244.172L369.813 233.455V236.153L388.363 246.87V244.172Z" fill="white"/>
<path d="M418.784 261.723L390.682 245.509V248.207L418.784 264.421V261.723Z" fill="white"/>
<path d="M402.401 257.209L382.642 245.786V248.484L402.401 259.907V257.209Z" fill="white"/>
<path d="M423.144 269.187L404.72 258.546V261.244L423.144 271.86V269.187Z" fill="white"/>
<path d="M425.462 270.523V273.222L439.753 281.467V278.769L425.462 270.523Z" fill="white"/>
<path d="M373.467 245.433V248.131L388.363 256.73V254.032L373.467 245.433Z" fill="white"/>
<path d="M433.931 280.333L390.682 255.368V258.066L433.931 283.031V280.333Z" fill="white"/>
<path d="M409.181 280.837L380.902 264.522V267.22L409.181 283.535V280.837Z" fill="white"/>
<path d="M433.931 295.11L411.5 282.173V284.872L433.931 297.833V295.11Z" fill="white"/>
<path d="M431.461 308.474L403.561 292.386V295.084L431.461 311.172V308.474Z" fill="white"/>
<path d="M416.263 304.641V307.34L431.461 316.115V313.417L416.263 304.641Z" fill="white"/>
<path d="M375.282 280.988L369.813 277.836V280.534L375.282 283.686V280.988Z" fill="white"/>
<path d="M385.515 286.914V289.612L413.944 306.003V303.305L385.515 286.914Z" fill="white"/>
<path d="M383.196 285.578L377.601 282.35V285.048L383.196 288.276V285.578Z" fill="white"/>
<path d="M408.677 305.196L377.601 287.267V289.965L408.677 307.894V305.196Z" fill="white"/>
</g>
<g opacity="0.4">
<path d="M458.404 55.4765V58.1746L469.745 64.7057V62.0075L458.404 55.4765Z" fill="white"/>
<path d="M458.404 60.3937V63.0919L469.745 69.6482V66.95L458.404 60.3937Z" fill="white"/>
<path d="M458.404 65.3361V68.0343L469.745 74.5654V71.8672L458.404 65.3361Z" fill="white"/>
<path d="M543.945 122.326V119.627L474.005 79.2557V81.9538L543.945 122.326Z" fill="white"/>
<path d="M458.404 70.2786V72.9768L469.745 79.5078V76.8097L458.404 70.2786Z" fill="white"/>
<path d="M458.404 75.1958V77.894L469.745 84.4503V81.7269L458.404 75.1958Z" fill="white"/>
<path d="M543.945 127.268V124.57L474.005 84.1981V86.8963L543.945 127.268Z" fill="white"/>
<path d="M458.404 89.9979V92.6961L469.745 99.2272V96.529L458.404 89.9979Z" fill="white"/>
<path d="M458.404 94.9152V97.6133L469.745 104.17V101.471L458.404 94.9152Z" fill="white"/>
<path d="M458.404 114.66V117.358L469.745 123.889V121.191L458.404 114.66Z" fill="white"/>
<path d="M458.404 119.577V122.275L469.745 128.831V126.108L458.404 119.577Z" fill="white"/>
<path d="M518.111 154.048L474.005 128.579V131.277L518.111 156.746V154.048Z" fill="white"/>
<path d="M520.455 155.385V158.083L543.945 171.649V168.951L520.455 155.385Z" fill="white"/>
<path d="M496.159 136.447L474.005 123.637V126.335L496.159 139.145V136.447Z" fill="white"/>
<path d="M498.478 137.783V140.481L543.945 166.707V164.009L498.478 137.783Z" fill="white"/>
<path d="M537.972 145.752V148.475L543.945 151.905V149.206L537.972 145.752Z" fill="white"/>
<path d="M505.434 122.048L474.005 103.917V106.616L505.434 124.746V122.048Z" fill="white"/>
<path d="M492.555 75.1706L474.005 64.4788V67.1769L492.555 77.8688V75.1706Z" fill="white"/>
<path d="M522.95 92.7213L494.874 76.5071V79.2053L522.95 95.4195V92.7213Z" fill="white"/>
<path d="M506.593 88.2076L486.808 76.8097V79.5079L506.593 90.9057V88.2076Z" fill="white"/>
<path d="M527.336 100.185L508.912 89.544V92.2422L527.336 102.884V100.185Z" fill="white"/>
<path d="M529.654 101.522V104.22L543.945 112.466V109.768L529.654 101.522Z" fill="white"/>
<path d="M477.634 76.4314V79.1296L492.555 87.7285V85.0303L477.634 76.4314Z" fill="white"/>
<path d="M538.123 111.331L494.874 86.392V89.0901L538.123 114.029V111.331Z" fill="white"/>
<path d="M513.347 111.836L485.094 95.5204V98.2186L513.347 114.534V111.836Z" fill="white"/>
<path d="M538.123 126.133L515.692 113.172V115.87L538.123 128.831V126.133Z" fill="white"/>
<path d="M535.628 139.498L507.752 123.41V126.108L535.628 142.196V139.498Z" fill="white"/>
<path d="M520.455 135.665V138.363L535.628 147.113V144.415L520.455 135.665Z" fill="white"/>
<path d="M479.474 112.012L474.005 108.86V111.558L479.474 114.71V112.012Z" fill="white"/>
<path d="M489.707 117.913V120.611L518.111 137.027V134.303L489.707 117.913Z" fill="white"/>
<path d="M487.388 116.576L481.793 113.348V116.047L487.388 119.274V116.576Z" fill="white"/>
<path d="M512.869 136.22L481.793 118.291V120.989L512.869 138.918V136.22Z" fill="white"/>
</g>
<path d="M253.523 401.977C251.21 401.18 248.738 400.956 246.319 401.325C243.9 401.694 241.607 402.645 239.636 404.096C232.075 409.139 227.034 416.023 230.109 418.595C233.184 421.167 239.107 423.916 242.963 422.529C246.819 421.142 265.873 409.946 253.523 401.977Z" fill="#0F4463"/>
<path d="M412.079 372.55L352.7 406.214L314.844 384.301L374.224 350.662L412.079 372.55Z" fill="#ED5561"/>
<path d="M364.318 405.407V406.718L423.698 372.701V371.743L364.318 405.407Z" fill="#F0CEC9"/>
<path d="M423.698 371.743L364.318 405.407L326.488 383.494L385.842 349.855L423.698 371.743Z" fill="#FFFBF0"/>
<path d="M364.318 405.407V406.718L326.488 384.805V383.494L364.318 405.407Z" fill="#F5DDD8"/>
<path d="M385.439 353.435L408.299 366.624L407.316 367.204L384.431 354.015L385.439 353.435Z" fill="#DFBAB8"/>
<path d="M383.07 354.797L405.93 367.985L404.922 368.54L382.062 355.352L383.07 354.797Z" fill="#DFBAB8"/>
<path d="M377.551 357.924L409.03 376.105L408.022 376.66L376.542 358.479L377.551 357.924Z" fill="#DFBAB8"/>
<path d="M375.358 359.16L406.837 377.341L405.854 377.896L374.35 359.714L375.358 359.16Z" fill="#DFBAB8"/>
<path d="M373.19 360.395L404.67 378.576L403.661 379.131L372.182 360.95L373.19 360.395Z" fill="#DFBAB8"/>
<path d="M370.998 361.631L402.477 379.812L401.494 380.367L370.015 362.186L370.998 361.631Z" fill="#DFBAB8"/>
<path d="M368.83 362.866L400.309 381.048L399.301 381.628L367.822 363.446L368.83 362.866Z" fill="#DFBAB8"/>
<path d="M366.637 364.102L398.142 382.283L397.134 382.863L365.654 364.682L366.637 364.102Z" fill="#DFBAB8"/>
<path d="M364.47 365.338L395.949 383.519L394.941 384.099L363.461 365.918L364.47 365.338Z" fill="#DFBAB8"/>
<path d="M362.277 366.573L393.781 384.754L392.773 385.334L361.294 367.153L362.277 366.573Z" fill="#DFBAB8"/>
<path d="M360.11 367.809L391.589 385.99L390.581 386.57L359.102 368.389L360.11 367.809Z" fill="#DFBAB8"/>
<path d="M357.917 369.045L389.421 387.226L388.413 387.806L356.934 369.625L357.917 369.045Z" fill="#DFBAB8"/>
<path d="M355.749 370.28L387.229 388.487L386.221 389.041L354.741 370.86L355.749 370.28Z" fill="#DFBAB8"/>
<path d="M353.582 371.541L385.061 389.697L384.053 390.277L352.574 372.096L353.582 371.541Z" fill="#DFBAB8"/>
<path d="M351.389 372.777L382.868 390.958L381.86 391.513L350.381 373.331L351.389 372.777Z" fill="#DFBAB8"/>
<path d="M349.222 374.012L380.701 392.193L379.693 392.748L348.213 374.567L349.222 374.012Z" fill="#DFBAB8"/>
<path d="M347.029 375.248L378.508 393.429L377.525 393.984L346.021 375.803L347.029 375.248Z" fill="#DFBAB8"/>
<path d="M321.372 392.143H315.827V398.145H321.372C322.368 398.145 323.323 398.54 324.027 399.245C324.731 399.95 325.127 400.905 325.127 401.902V411.635C325.12 412.627 324.722 413.577 324.018 414.276C323.315 414.975 322.363 415.367 321.372 415.367H313.231V421.369H321.372C323.954 421.369 326.431 420.344 328.26 418.52C330.088 416.695 331.119 414.219 331.126 411.635V401.977C331.132 400.69 330.885 399.415 330.398 398.224C329.911 397.032 329.194 395.949 328.288 395.035C327.382 394.122 326.305 393.396 325.118 392.9C323.931 392.403 322.658 392.146 321.372 392.143Z" fill="#A7BCCE"/>
<path d="M319.28 388.84V422.579C319.28 427.824 311.492 432.061 301.889 432.061C292.287 432.061 284.474 427.824 284.474 422.579V388.84H319.28Z" fill="#BBCEE1"/>
<path d="M284.474 388.84C284.474 394.059 292.262 398.321 301.889 398.321C311.517 398.321 319.28 394.059 319.28 388.84C319.28 383.62 311.492 379.282 301.889 379.282C292.287 379.282 284.474 383.62 284.474 388.84Z" fill="white"/>
<path d="M287.952 388.713C287.952 392.824 294.177 396.127 301.889 396.127C309.602 396.127 315.827 392.824 315.827 388.713C315.827 384.603 309.576 381.325 301.889 381.325C294.202 381.325 287.952 384.628 287.952 388.713Z" fill="#A7BCCE"/>
<path d="M301.889 386.167C295.79 386.167 290.623 388.26 288.708 391.21C290.623 394.11 295.79 396.253 301.889 396.253C307.988 396.253 313.155 394.16 315.045 391.21C313.155 388.26 307.988 386.167 301.889 386.167Z" fill="#9D4D36"/>
<path d="M308.467 397.615V431.355C311.466 430.784 314.279 429.486 316.658 427.572V393.832C314.279 395.746 311.466 397.045 308.467 397.615Z" fill="#A7BCCE"/>
</g>
<defs>
<linearGradient id="paint0_linear_32_2" x1="220.028" y1="333.968" x2="263.595" y2="190.751" gradientUnits="userSpaceOnUse">
<stop stop-color="#1C75BC"/>
<stop offset="0.28" stop-color="#2077BC"/>
<stop offset="0.54" stop-color="#2B7EBC"/>
<stop offset="0.8" stop-color="#3E88BC"/>
<stop offset="1" stop-color="#5394BC"/>
</linearGradient>
<clipPath id="clip0_32_2">
<rect width="591" height="588" fill="white"/>
</clipPath>
</defs>
</svg>
